<?xml version="1.0" encoding="UTF-8" standalone="no"?>
<!-- Generator: Adobe Illustrator 21.0.2, SVG Export Plug-In . SVG Version: 6.00 Build 0)  -->

<svg
   xmlns:dc="http://purl.org/dc/elements/1.1/"
   xmlns:cc="http://creativecommons.org/ns#"
   xmlns:rdf="http://www.w3.org/1999/02/22-rdf-syntax-ns#"
   xmlns:svg="http://www.w3.org/2000/svg"
   xmlns="http://www.w3.org/2000/svg"
   xmlns:sodipodi="http://sodipodi.sourceforge.net/DTD/sodipodi-0.dtd"
   xmlns:inkscape="http://www.inkscape.org/namespaces/inkscape"
   version="1.0"
   id="Layer_1"
   x="0px"
   y="0px"
   viewBox="0 0 1087.1 1087.1"
   style="enable-background:new 0 0 1087.1 1087.1;"
   xml:space="preserve"
   inkscape:version="0.91 r13725"
   sodipodi:docname="BVC outline.svg"
   inkscape:export-filename="/Users/jason/Documents/Venture Currency/BVC outline.png"
   inkscape:export-xdpi="84.779999"
   inkscape:export-ydpi="84.779999"><metadata
     id="metadata11"><rdf:RDF><cc:Work
         rdf:about=""><dc:format>image/svg+xml</dc:format><dc:type
           rdf:resource="http://purl.org/dc/dcmitype/StillImage" /><dc:title /></cc:Work></rdf:RDF></metadata><defs
     id="defs9"><filter
       style="color-interpolation-filters:sRGB;"
       height="1.4"
       width="1.4"
       y="-0.2"
       x="-0.2"
       inkscape:label="Outline"
       id="filter6519"><feGaussianBlur
         in="SourceAlpha"
         stdDeviation="4"
         result="blur1"
         id="feGaussianBlur6521" /><feComposite
         in="SourceGraphic"
         in2="blur1"
         operator="out"
         result="composite1"
         id="feComposite6523" /><feColorMatrix
         values="1 0 0 0 0 0 1 0 0 0 0 0 1 0 0 0 0 0 100 -1 "
         result="colormatrix1"
         id="feColorMatrix6525" /><feGaussianBlur
         stdDeviation="0.5"
         result="blur2"
         id="feGaussianBlur6527" /><feComposite
         in="blur2"
         in2="blur2"
         operator="over"
         result="composite2"
         id="feComposite6529" /><feColorMatrix
         values="1 0 0 0 0 0 1 0 0 0 0 0 1 0 0 0 0 0 50 -5 "
         result="colormatrix2"
         id="feColorMatrix6531" /><feGaussianBlur
         stdDeviation="1"
         result="blur3"
         id="feGaussianBlur6533" /><feColorMatrix
         values="1 0 0 0 0 0 1 0 0 0 0 0 1 0 0 0 0 0 1 0 "
         result="colormatrix3"
         id="feColorMatrix6535" /><feFlood
         flood-opacity="1"
         flood-color="rgb(0,0,0)"
         result="flood"
         id="feFlood6537" /><feComposite
         in="flood"
         in2="colormatrix3"
         k2="1"
         operator="in"
         result="composite3"
         id="feComposite6539" /><feComposite
         in="SourceGraphic"
         in2="colormatrix3"
         operator="out"
         result="composite4"
         id="feComposite6541" /><feComposite
         in="composite4"
         in2="composite3"
         k2="1"
         k3="1"
         operator="arithmetic"
         result="composite5"
         id="feComposite6543" /></filter></defs><sodipodi:namedview
     pagecolor="#ffffff"
     bordercolor="#666666"
     borderopacity="1"
     objecttolerance="10"
     gridtolerance="10"
     guidetolerance="10"
     inkscape:pageopacity="1"
     inkscape:pageshadow="2"
     inkscape:window-width="1407"
     inkscape:window-height="1282"
     id="namedview7"
     showgrid="false"
     inkscape:zoom="0.86836539"
     inkscape:cx="482.57569"
     inkscape:cy="537.83111"
     inkscape:window-x="1"
     inkscape:window-y="0"
     inkscape:window-maximized="0"
     inkscape:current-layer="Layer_1" /><path
     d="M133.5,236.9c3.9-5.2,7.9-10.3,12-15.4h0c20.5-25.2,43.4-48.5,68.3-69.4l-6.4-7.7c-25.3,21.3-48.7,45.1-69.6,70.8h0  c-4.2,5.1-8.3,10.4-12.3,15.7L133.5,236.9z M132.3,238.5l-8-6c-3.9,5.3-7.8,10.7-11.6,16.2l8.2,5.7  C124.6,249,128.5,243.7,132.3,238.5z M230.5,138.7l-6.1-7.9c-5.2,4-10.4,8.2-15.5,12.4l6.4,7.7C220.3,146.7,225.4,142.6,230.5,138.7  z M371.8,61.3c30.5-10.9,62.3-18.9,94.4-23.8l-1.5-9.9c-32.7,5-65.1,13.2-96.2,24.3v0c-6.2,2.2-12.5,4.6-18.6,7l3.7,9.3  C359.6,65.8,365.7,63.5,371.8,61.3z M247.7,125.9L247.7,125.9c26.5-18.8,54.9-35.1,84.4-48.5l-4.1-9.1c-30.1,13.7-59,30.3-86,49.5  l0,0c-5.4,3.8-10.8,7.8-16,11.8l6.1,7.9C237.2,133.5,242.4,129.6,247.7,125.9z M351.7,69l-3.8-9.3c-6.1,2.5-12.2,5.1-18.2,7.8  l4.1,9.1C339.7,73.9,345.8,71.4,351.7,69z M65.4,359.2c2.4-6,4.9-12.1,7.4-18.1l-8-3.5l8,3.5c12.9-29.7,28.7-58.4,47.1-85.2  l-8.3-5.6c-18.7,27.3-34.8,56.6-48,86.9l0,0c-2.6,6.1-5.2,12.3-7.6,18.4L65.4,359.2z M30.6,545.6c0-8.9,0.2-17.9,0.7-26.8l-10-0.5  c-0.5,9-0.7,18.2-0.7,27.3c0,24,1.6,48.2,4.9,71.8l9.9-1.4C32.2,592.9,30.6,569.1,30.6,545.6z M38.7,637.2l-9.8,1.8  c1.2,6.5,2.5,13,3.9,19.5l9.8-2.1C41.1,650,39.9,643.6,38.7,637.2z M64.7,361.1l-9.3-3.6c-2.4,6.2-4.7,12.5-6.8,18.7l9.5,3.2  C60.1,373.3,62.3,367.1,64.7,361.1z M35.2,476.1L35.2,476.1c4.3-32.2,11.8-64.1,22.1-94.8l-9.5-3.2c-10.6,31.3-18.1,63.8-22.6,96.6  l4.9,0.7l-4.9-0.7c-0.9,6.5-1.7,13.2-2.3,19.7l10,1C33.6,489,34.4,482.5,35.2,476.1z M32.8,497.4l-10-0.9  c-0.6,6.6-1.1,13.2-1.5,19.8l10,0.5C31.7,510.4,32.2,503.8,32.8,497.4z M35.4,616.1l-9.9,1.4c0.9,6.5,1.9,13.1,3.1,19.6l9.8-1.7  C37.3,628.9,36.2,622.5,35.4,616.1z M508.8,32.8L508.8,32.8c11.8-0.8,23.9-1.2,35.8-1.2c20.6,0,41.3,1.2,61.5,3.6l1.2-9.9  c-20.7-2.5-41.8-3.7-62.7-3.7c-12.1,0-24.4,0.4-36.5,1.2v0c-6.6,0.5-13.2,1-19.8,1.7l1.1,9.9C495.8,33.8,502.3,33.2,508.8,32.8z   M983.4,277.8L983.4,277.8c16.9,27.7,31.3,57.1,42.7,87.5l9.4-3.5c-11.6-30.9-26.2-60.9-43.5-89.2l0,0c-3.4-5.6-7-11.2-10.7-16.7  l-8.3,5.5C976.5,266.8,980,272.3,983.4,277.8z M894.9,169.4l2.2-2.4L894.9,169.4c23.7,22.1,45.5,46.6,64.7,72.8l8.1-5.9  c-19.5-26.7-41.7-51.6-65.9-74.2l0,0c-4.8-4.5-9.8-9-14.8-13.3l-6.5,7.6C885.3,160.6,890.2,165,894.9,169.4z M971.8,259.8l8.3-5.6  c-3.7-5.5-7.5-10.9-11.4-16.3l-8.1,5.9C964.5,249,968.3,254.4,971.8,259.8z M1058.1,523.2l10-0.4c-0.3-6.6-0.7-13.3-1.2-19.8  l-10,0.8C1057.4,510.2,1057.8,516.8,1058.1,523.2z M1039.4,406l4.8-1.4L1039.4,406c8.8,31.2,14.6,63.4,17.3,95.8l10-0.8  c-2.8-33-8.7-65.9-17.7-97.6c-1.8-6.4-3.7-12.8-5.7-19l-9.5,3.1C1035.8,393.5,1037.7,399.8,1039.4,406z M1033.2,385.5l9.5-3.1  c-2.1-6.3-4.3-12.6-6.5-18.8l-9.4,3.5C1029,373.2,1031.2,379.4,1033.2,385.5z M628.9,28.3c-6.5-1.1-13.1-2-19.7-2.8l-1.2,9.9  c6.4,0.8,12.9,1.7,19.3,2.7L628.9,28.3z M648.4,42.1c31.8,6.5,63.1,16.1,93.1,28.6l3.8-9.2c-30.6-12.7-62.5-22.5-94.9-29.1v0  c-6.5-1.3-13-2.5-19.5-3.6l-1.6,9.9C635.7,39.6,642.1,40.8,648.4,42.1L648.4,42.1z M878.9,155.1l6.5-7.6c-5-4.3-10.2-8.6-15.3-12.7  l-6.2,7.8C868.9,146.7,874,150.9,878.9,155.1z M780.5,88.8L780.5,88.8c28.8,14.9,56.3,32.6,81.8,52.7l6.2-7.9  c-26-20.5-54.1-38.6-83.4-53.8v0c-5.9-3-11.9-6-17.9-8.8l-4.3,9.1C768.8,82.9,774.7,85.8,780.5,88.8z M761.2,79.3l4.2-9.1  c-6-2.8-12.1-5.5-18.2-8.1l-3.9,9.2C749.3,73.9,755.3,76.6,761.2,79.3z M487.4,34.7l-1.1-9.9c-6.6,0.7-13.2,1.6-19.7,2.6l1.5,9.9  C474.5,36.3,481,35.4,487.4,34.7z M895.4,921.2l6.8,7.3c4.8-4.5,9.6-9.2,14.3-13.8l-7.1-7C904.9,912.2,900.2,916.8,895.4,921.2z   M910.8,906.2l7.1,7c4.6-4.7,9.2-9.6,13.7-14.4l-7.4-6.7C919.9,896.8,915.3,901.6,910.8,906.2z M925.5,890.6l7.4,6.7  c22.2-24.5,42.2-51.3,59.4-79.5l-8.5-5.2C967,840.3,947.3,866.6,925.5,890.6z M983.8,812.6l8.5,5.2c3.4-5.6,6.8-11.4,10-17.2  l-8.7-4.9C990.5,801.4,987.2,807.1,983.8,812.6z M800,991.7l5,8.7c5.7-3.3,11.4-6.7,17-10.2l-5.3-8.5  C811.2,985.1,805.6,988.5,800,991.7z M818.4,980.7l5.3,8.5c28-17.6,54.4-38,78.6-60.6l-6.8-7.3C871.7,943.4,845.8,963.4,818.4,980.7  z M781.2,1002l2.4,4.6L781.2,1002c-28.8,15-59.2,27.2-90.3,36.5l2.8,9.6c31.7-9.4,62.6-21.9,92-37.2c5.8-3,11.7-6.2,17.4-9.5  l-4.9-8.7C792.7,995.9,786.9,999,781.2,1002z M1045,663.5l9.7,2.3c1.5-6.4,2.9-13,4.2-19.4l-9.8-1.9  C1047.8,650.7,1046.5,657.2,1045,663.5z M1068.6,544.6c0-6.6-0.1-13.3-0.4-19.9l-10,0.4c0.3,6.4,0.4,13,0.4,19.5l5.3,0l-5.3,0v0.9  c0,32.6-3.1,65.2-9.1,96.9l9.8,1.9c6.2-32.3,9.3-65.6,9.3-98.8L1068.6,544.6L1068.6,544.6z M73.2,750.8C60.2,721,50,689.9,43,658.3  l-9.8,2.2c7.2,32.3,17.6,64,30.8,94.3L73.2,750.8z M1039.6,684.2l9.6,2.7c1.8-6.4,3.5-12.8,5-19.2l-9.7-2.3  C1043,671.6,1041.4,678,1039.6,684.2z M1004.6,775.1l8.9,4.5c14.8-29.6,26.8-60.8,35.7-92.6l-9.6-2.7  C1030.9,715.5,1019.1,746,1004.6,775.1z M994.6,794.1l8.8,4.8c3.2-5.8,6.3-11.7,9.3-17.6l-8.9-4.5  C1000.8,782.6,997.7,788.4,994.6,794.1z M159.9,886.5l-7.5,6.6c4.4,4.9,8.9,9.8,13.5,14.6l7.2-6.9  C168.6,896.2,164.2,891.3,159.9,886.5z M146,870.2c-20.5-25.2-38.7-52.4-54.1-80.9l-8.8,4.7c15.7,29.1,34.3,56.8,55.2,82.5l4.7-3.8  l-4.7,3.8c4.2,5.1,8.5,10.2,12.8,15.2l7.5-6.6C154.3,880.2,150.1,875.2,146,870.2z M266.1,977.7l-5.4,8.4  c5.6,3.6,11.2,7.1,16.9,10.5l5.1-8.6C277.2,984.7,271.6,981.2,266.1,977.7z M248.3,965.7L248.3,965.7  c-26.5-18.7-51.3-40.1-73.9-63.4l-7.2,6.9c23,23.8,48.3,45.6,75.3,64.7h0c5.4,3.8,10.9,7.6,16.5,11.2l5.5-8.4  C259.1,973.1,253.6,969.4,248.3,965.7z M73.2,750.8l-9.2,4c2.6,6,5.4,12.1,8.3,18l9-4.3C78.5,762.7,75.7,756.7,73.2,750.8z   M82.1,770.2l-9,4.4c2.9,5.9,5.9,11.9,9,17.7l8.8-4.7C87.9,781.8,84.9,776,82.1,770.2z M372.6,1030.1  c-30.5-10.8-60.2-24.7-88.2-41.1l-5.1,8.6c28.6,16.8,58.8,30.9,90,42c6.2,2.2,12.6,4.3,18.9,6.3l3-9.5  C385,1034.4,378.8,1032.3,372.6,1030.1z M668.4,1044.6c-6.3,1.6-12.7,3-19,4.3l0,0c-31.6,6.6-64.2,10.1-96.8,10.6l0.2,10  c33.2-0.5,66.4-4.2,98.6-10.8l0,0c6.5-1.3,13-2.8,19.4-4.4L668.4,1044.6z M531.2,1059.4l-0.3,10c4.5,0.1,9.1,0.2,13.6,0.2  c2.1,0,4.2,0,6.2,0l-0.1-10C544.2,1059.6,537.6,1059.6,531.2,1059.4z M509.1,1067.7l0.6-9.3c-32.5-2.2-64.8-7.4-96.1-15.7l-2.5,9.7  c31.9,8.4,64.9,13.7,97.9,16l0,0c6.6,0.4,13.2,0.8,19.8,1l0.3-10c-6.5-0.2-13-0.5-19.5-0.9L509.1,1067.7z M670.3,1044.1l2.4,9.7  c6.4-1.6,12.9-3.4,19.2-5.2l-2.8-9.6C682.9,1040.8,676.6,1042.5,670.3,1044.1z M393.1,1036.9l-2.9,9.6c6.3,1.9,12.7,3.8,19.1,5.5  l2.6-9.7C405.6,1040.6,399.2,1038.8,393.1,1036.9z"
     id="path5" /><path
     style="opacity:1;fill:#f7931a;fill-opacity:1;filter:url(#filter6519)"
     inkscape:connector-curvature="0"
     d="M 937.38117,347.26745 C 951.05241,257.09749 881.47286,208.62426 786.33216,176.28761 L 817.19441,54.140979 741.8416,35.611461 711.7949,154.53924 c -19.80935,-4.87061 -40.15525,-9.46594 -60.37238,-14.01892 L 681.68383,20.809019 606.37394,2.2795019 575.49023,124.38377 c -16.39691,-3.68473 -32.49334,-7.32711 -48.11763,-11.16008 l 0.0858,-0.38117 -103.91863,-25.602514 -20.04544,79.412244 c 0,0 55.90831,12.64243 54.7279,13.42597 30.51886,7.51769 36.03458,27.44486 35.11171,43.2426 l -35.15461,139.15142 c 2.10327,0.52941 4.82894,1.29176 7.8336,2.47767 -2.51104,-0.61413 -5.19378,-1.29179 -7.96237,-1.94826 l -49.27658,194.93056 c -3.73437,9.1483 -13.19907,22.87073 -34.53222,17.66129 0.75117,1.08001 -54.77083,-13.48948 -54.77083,-13.48948 l -37.40813,85.10874 98.05952,24.12014 c 18.24263,4.51062 36.12041,9.23298 53.71919,13.68007 l -31.18417,123.54427 75.26696,18.52951 30.88371,-122.2313 c 20.56052,5.50591 40.5201,10.58829 60.05046,15.3742 l -30.7764,121.65955 75.3528,18.52952 31.18419,-123.31132 c 128.49252,23.99308 225.1141,14.31538 265.78444,-100.35588 32.77236,-92.32996 -1.6311,-145.58911 -69.23616,-180.31873 49.23365,-11.20242 86.31985,-43.1579 96.2138,-109.16534 z M 765.21363,585.48298 C 741.92745,677.81294 584.37547,627.8997 533.2961,615.38433 l 41.37858,-163.67392 c 51.07938,12.5789 214.87677,37.48258 190.53895,133.77257 z m 23.30765,-239.54967 c -21.24731,83.98638 -152.37965,41.31554 -194.91718,30.85431 l 37.51544,-148.44795 c 42.53753,10.46125 179.52898,29.98606 157.40174,117.59364 z"
     id="path3681-4" /><path
     d="m 906.55711,571.7143 c -5.2,-9.8 -10.9,2.1 -7.8,2.1 3.1,0 1,5.2 -1.6,8.3 -2.6,3.1 3.1,1.6 8.8,-1 5.8,-2.7 2.9,-5.1 0.6,-9.4 z"
     id="path3863"
     inkscape:connector-curvature="0" /><path
     d="m 899.95711,598.6143 c 14,-3.7 4.5,-4.1 4.5,-4.1 0,0 -20,4.1 -26.8,6.2 -10.7,3.3 -1.6,3.7 -1.6,3.7 0,0 9.9,-2.1 23.9,-5.8 z"
     id="path3861"
     inkscape:connector-curvature="0" /><path
     d="m 899.95711,564.4143 c 9.1,0 2.5,-8.2 0.4,-12.4 -2.1,-4.1 -9.1,-0.8 -10.7,-0.4 0,0 -4.5,1.6 -18.1,5.4 -13.6,3.7 0,7.8 2.1,7.8 2.1,0 17.2,-0.4 26.3,-0.4 z"
     id="path3851"
     inkscape:connector-curvature="0" /><path
     d="m 706.65711,276.0143 c 0,-3.2 -1.9,-7.2 -1.9,-7.2 l 0,6.8 -3.3,10.4 -2.4,72.1 c 0,0 3.3,-0.9 5.2,-2.7 1.9,-1.8 9.4,0 9.4,0 -3.3,-4.5 -10.8,-3.6 -10.8,-3.6 l 1,-64.4 c 0,-0.1 2.8,-8.2 2.8,-11.4 z"
     id="path3849"
     inkscape:connector-curvature="0" /><path
     d="m 718.85711,664.6143 c -13.3,-1.7 -49.4,1.7 -46.6,2.8 2.8,1.1 -3.9,6.7 -3.9,6.7 0,0 57.1,-1.1 73.8,-3.3 16.7,-2.3 -10,-4.5 -23.3,-6.2 z"
     id="path3847"
     inkscape:connector-curvature="0" /><path
     d="m 863.95711,647.2143 c 2.7,1.6 8.7,0 8.7,0 0,0 -2.7,-2.7 -7.6,-3.8 -4.9,-1.1 -5.4,-0.5 -5.4,-0.5 0,0 1.6,2.7 4.3,4.3 z"
     id="path3845"
     inkscape:connector-curvature="0" /><path
     d="m 719.15711,592.8143 c -0.1,-3.3 -0.1,-6.8 -0.2,-10.4 l -4.2,0.2 0.3,10.4 4.1,-0.2 z"
     id="path3843"
     inkscape:connector-curvature="0" /><path
     d="m 713.55711,546.0143 0.4,11.5 4.5,-0.2 c -0.1,-3.9 -0.2,-7.7 -0.3,-11.5 l -4.6,0.2 z"
     id="path3841"
     inkscape:connector-curvature="0" /><path
     d="m 707.75711,243.2143 c 0,0 -1,-24 0,-25 l -34.8,46 19.1,0 15.7,-21 z"
     id="path3839"
     inkscape:connector-curvature="0" /><path
     d="m 712.95711,528.0143 0.4,10.8 4.7,-0.3 c -0.1,-3.7 -0.2,-7.3 -0.3,-10.8 l -4.8,0.3 z"
     id="path3837"
     inkscape:connector-curvature="0" /><path
     d="m 714.15711,563.9143 0.4,12.9 4.3,-0.2 c -0.1,-4.2 -0.2,-8.6 -0.3,-12.9 l -4.4,0.2 z"
     id="path3835"
     inkscape:connector-curvature="0" /><path
     d="m 703.15711,577.5143 6.3,-0.3 -0.2,-12.9 -5.9,0.3 -0.2,12.9 z"
     id="path3833"
     inkscape:connector-curvature="0" /><path
     d="m 703.45711,558.0143 5.7,-0.3 -0.2,-11.5 -5.3,0.3 -0.2,11.5 z"
     id="path3831"
     inkscape:connector-curvature="0" /><path
     d="m 712.35711,511.5143 0.3,10.4 4.8,-0.3 c -0.1,-3.8 -0.2,-7.3 -0.3,-10.4 l -4.8,0.3 z"
     id="path3829"
     inkscape:connector-curvature="0" /><path
     d="m 702.95711,593.7143 6.8,-0.4 -0.2,-10.4 -6.4,0.3 -0.2,10.5 z"
     id="path3827"
     inkscape:connector-curvature="0" /><path
     d="m 713.75711,406.7143 0.2,13 4.7,-0.1 c 0,-4.7 -0.1,-9.1 -0.1,-13 l -4.8,0.1 z"
     id="path3825"
     inkscape:connector-curvature="0" /><path
     d="m 698.65711,398.4143 4.1,-0.1 0.8,-15.4 c -1.3,0 -2.6,-0.1 -3.8,-0.1 -0.2,3.3 -0.6,8.7 -1.1,15.6 z"
     id="path3823"
     inkscape:connector-curvature="0" /><path
     d="m 713.55711,492.7143 c 0,0 -0.7,0 -1.9,0 l 0.4,11.9 4.9,-0.3 c -0.1,-4 -0.3,-6.7 -0.3,-7.5 -0.7,-6.3 -3.1,-4.1 -3.1,-4.1 z"
     id="path3821"
     inkscape:connector-curvature="0" /><path
     d="m 695.65711,441.1143 5.1,-0.1 0.7,-13.5 -4.8,0.1 c -0.4,4.4 -0.7,8.9 -1,13.5 z"
     id="path3819"
     inkscape:connector-curvature="0" /><path
     d="m 715.25711,383.4143 c 0,0 -0.7,0 -1.8,-0.1 l 0.2,14.9 4.7,-0.1 c -0.1,-5 -0.2,-8.4 -0.2,-9.4 -0.6,-8.1 -2.9,-5.3 -2.9,-5.3 z"
     id="path3817"
     inkscape:connector-curvature="0" /><path
     d="m 697.15711,420.0143 4.6,-0.1 0.6,-13 -4.3,0.1 c -0.3,4 -0.6,8.4 -0.9,13 z"
     id="path3815"
     inkscape:connector-curvature="0" /><path
     d="m 714.05711,427.4143 0.2,13.5 4.5,-0.1 c 0,-4.7 -0.1,-9.2 -0.1,-13.5 l -4.6,0.1 z"
     id="path3813"
     inkscape:connector-curvature="0" /><path
     d="m 695.25711,382.8143 c -4.1,0.1 -2.8,10.8 -2.8,10.8 0,0 -0.1,1.8 -0.4,4.9 l 3.3,-0.1 c 0.6,-7 1,-12.5 1.2,-15.7 -0.5,0.1 -1,0.1 -1.3,0.1 z"
     id="path3811"
     inkscape:connector-curvature="0" /><path
     d="m 718.95711,464.1143 c 0,-4.8 -0.1,-9.6 -0.1,-14.4 l -4.5,0.1 0.2,14.4 4.4,-0.1 z"
     id="path3809"
     inkscape:connector-curvature="0" /><path
     d="m 187.85711,661.0143 c 2.7,0.2 5.3,0.3 8,0.5 -0.2,-2 -0.6,-5.5 -0.6,-7.8 -2.6,-0.1 -4.1,1.9 -6.7,1.7 -0.1,2.1 -0.8,3.5 -0.7,5.6 z"
     id="path3807"
     inkscape:connector-curvature="0" /><path
     d="m 203.95711,647.4143 c 0.6,-0.3 1.3,-0.9 1.7,-1.8 0,0 -0.1,0 -0.1,-0.1 -1.9,-0.1 -3.7,-0.2 -5.6,-0.4 0.1,1.9 0.3,3.8 0.5,5.7 0.7,0 1.4,0 2.1,0 -0.1,-1.6 0.3,-2.9 1.4,-3.4 z"
     id="path3805"
     inkscape:connector-curvature="0" /><path
     d="m 213.05711,582.4143 26.8,0 3,-13.7 -29.8,13.7 z"
     id="path3803"
     inkscape:connector-curvature="0" /><path
     d="m 292.65711,516.6143 6.1,0.2 c 0.3,-4.7 0.5,-9.1 0.7,-13 l -6.1,-0.2 -0.7,13 z"
     id="path3801"
     inkscape:connector-curvature="0" /><path
     d="m 249.65711,612.0143 -4.9,-0.1 c -1.2,6.9 -2.1,11.4 -2.2,12.1 -0.2,0.7 -0.4,1.7 -0.7,2.7 l 5.1,0.1 c 0.9,-4.3 1.8,-9.3 2.7,-14.8 z"
     id="path3799"
     inkscape:connector-curvature="0" /><path
     d="m 202.65711,661.5143 c -0.5,-2.2 0.5,-4.3 0.1,-6.3 -0.7,0 -1.3,0 -2,0 0.3,2.3 0.6,4.5 1,6.5 0.9,0 0.1,-0.2 0.9,-0.2 z"
     id="path3797"
     inkscape:connector-curvature="0" /><path
     d="m 212.85711,662.3143 c 2.8,-3.7 -1.9,0 -4.6,0 -2.8,0 -0.5,-2.8 -1.9,-5.6 -1.4,-2.8 -1.9,7.9 -1.9,10.2 0,1.2 -0.6,2.3 -1.2,3.2 -0.6,0.9 -1.2,1.4 -1.2,1.4 0,0 8,-5.5 10.8,-9.2 z"
     id="path3795"
     inkscape:connector-curvature="0" /><path
     d="m 300.15711,485.8143 c -0.2,-8.1 -3.4,-5.5 -3.4,-5.5 0,0 -0.9,-0.1 -2.3,-0.2 l -0.7,14.9 6.2,0.2 c 0.2,-5 0.3,-8.4 0.2,-9.4 z"
     id="path3793"
     inkscape:connector-curvature="0" /><path
     d="m 269.95711,494.4143 c 1.2,-7 2.1,-12.5 2.6,-15.6 -0.7,0 -1.3,-0.1 -1.8,-0.1 -5.4,-0.1 -4.3,10.7 -4.3,10.7 0,0 -0.3,1.8 -0.9,4.9 l 4.4,0.1 z"
     id="path3791"
     inkscape:connector-curvature="0" /><path
     d="m 288.45711,605.4143 5.2,0.1 c 0.2,-4.1 0.5,-8.5 0.8,-13 l -5.3,-0.1 -0.7,13 z"
     id="path3789"
     inkscape:connector-curvature="0" /><path
     d="m 283.85711,494.8143 5.1,0.1 1,-15.1 c -1.4,-0.1 -3,-0.2 -4.6,-0.3 l -1.5,15.3 z"
     id="path3787"
     inkscape:connector-curvature="0" /><path
     d="m 281.75711,516.3143 5.7,0.2 0.8,-13 -5.3,-0.1 -1.2,12.9 z"
     id="path3785"
     inkscape:connector-curvature="0" /><path
     d="m 289.45711,585.2143 5.4,0.1 c 0.3,-5.3 0.6,-10.7 0.9,-16.1 l -5.6,-0.2 -0.7,16.2 z"
     id="path3783"
     inkscape:connector-curvature="0" /><path
     d="m 291.65711,537.6143 5.9,0.2 c 0.3,-4.6 0.5,-9.2 0.8,-13.5 l -6,-0.2 -0.7,13.5 z"
     id="path3781"
     inkscape:connector-curvature="0" /><path
     d="m 290.55711,561.0143 5.7,0.2 c 0.3,-4.8 0.6,-9.6 0.8,-14.3 l -5.8,-0.2 -0.7,14.3 z"
     id="path3779"
     inkscape:connector-curvature="0" /><path
     d="m 696.55711,289.4143 5.3,-14 -39.4,0 18.4,14 15.7,0 z"
     id="path3777"
     inkscape:connector-curvature="0" /><path
     d="m 475.95711,201.2143 c 0,-4 -1.9,-9.1 -1.9,-9.1 l 0,8.5 -3.3,13.1 -2.4,91.1 c 0,0 3.3,-1.1 5.2,-3.4 1.9,-2.3 9.4,0 9.4,0 -3.3,-5.7 -10.8,-4.6 -10.8,-4.6 l 1,-81.4 c -0.1,0 2.8,-10.2 2.8,-14.2 z"
     id="path3775"
     inkscape:connector-curvature="0" /><path
     d="m 475.05711,167.0143 c 0,0 -1,-24 0,-25 l -34.8,46 19.1,0 15.7,-21 z"
     id="path3773"
     inkscape:connector-curvature="0" /><path
     d="m 380.31362,499.6869 c 5.7,4.5 72.5009,-197.87401 72.1009,-202.77401 -0.4,-4.9 -16.65734,48.44355 -19.95734,48.84355 -3.3,0.4 -10.18577,32.52904 -10.18577,30.12904 0,-1.6 7.4857,-9.67118 12.9857,-27.17118 l 0.9,1.3 c 0,0 9.8,-31.5 17.6,-51.5 7.8,-20 11.9,-49.9 12.3,-60.1 0.4,-10.2 -5.7,11.9 -8.2,19.2 l -27.8,83.4 0.2,0.3 c -5.6,16.6 -1.67126,5.74236 -3.97126,10.54236 -3.3,6.9 -51.67223,143.33024 -45.97223,147.83024 z"
     id="path3771"
     inkscape:connector-curvature="0"
     sodipodi:nodetypes="ssssccssccccs" /><path
     d="m 703.75711,539.3143 5.1,-0.3 -0.2,-10.8 -4.8,0.3 -0.1,10.8 z"
     id="path3769"
     inkscape:connector-curvature="0" /><path
     d="m 496.05711,172.9143 9.9,15.1 9.9,0 -29.6,-46.7 0,46.7 9.9,-1.3 0,-13.8 z"
     id="path3767"
     inkscape:connector-curvature="0" /><path
     d="m 510.95711,301.0143 c 8.2,0 2.9,-14.3 2,-22.9 -0.8,-8.6 -5.7,-8.6 -4.9,-4.5 0.8,4.1 -2,5.3 -5.3,7.4 -3.3,2 -6.5,-3.3 -9,-4.1 -2.5,-0.8 1.2,6.1 -4.5,6.1 -5.7,0 -4.5,7.8 -4.5,7.8 -1.6,13.5 18,10.2 26.2,10.2 z"
     id="path3765"
     inkscape:connector-curvature="0" /><path
     d="m 279.75711,537.3143 6.4,0.2 0.9,-13.4 -6,-0.2 -1.3,13.4 z"
     id="path3763"
     inkscape:connector-curvature="0" /><path
     d="m 463.85711,213.2143 5.3,-14 -39.4,0 18.4,14 15.7,0 z"
     id="path3761"
     inkscape:connector-curvature="0" /><path
     d="m 188.15711,650.1143 c 2.5,0.2 5,0.4 7.5,0.5 0,-1.9 0.1,-3.9 0.1,-5.9 -2.1,-0.2 -4.2,-0.5 -6.3,-0.8 -0.6,2.1 -1.1,4.2 -1.3,6.2 z"
     id="path3759"
     inkscape:connector-curvature="0" /><path
     d="m 201.45711,665.3143 c -2.7,-0.1 -10.5,0.1 -13.2,0 0.3,2.3 2,8.2 2.5,9.8 3.1,-0.1 4,3.6 6.4,3.3 -0.5,-1.1 4.6,-11 4.3,-13.1 z"
     id="path3757"
     inkscape:connector-curvature="0" /><path
     d="m 195.85711,640.1143 c -1.5,-0.7 -3.1,-1.5 -4.8,-2.2 -0.1,0.5 -0.3,1.1 -0.5,1.6 1.8,0.2 3.5,0.5 5.2,0.7 0.1,0 0.1,0 0.1,-0.1 z"
     id="path3755"
     inkscape:connector-curvature="0" /><path
     d="m 377.83557,499.87663 -4.04994,7.00923 9.86524,-6.5496 19.41895,-51.13286 c 0,0 4.04994,-0.34471 7.6845,1.14906 3.63457,1.49377 5.91915,1.49377 16.40746,10.57128 10.48831,9.07752 9.13833,1.49377 9.13833,1.49377 0,0 1.8692,-11.60543 3.21918,-13.55882 1.34998,-2.0683 4.04994,5.51545 5.91915,7.58375 1.8692,2.06829 5.50376,-6.5496 5.50376,-6.5496 0,0 4.98454,4.02168 5.91915,6.08998 0.9346,2.06829 5.50376,-6.54961 5.50376,-6.54961 0,0 4.56917,5.51546 5.91915,6.54961 1.34998,1.03414 3.21918,-5.05584 3.21918,-5.05584 0,0 2.69996,2.52792 4.98454,5.05584 2.28459,2.52791 6.85375,-7.58375 6.85375,-7.58375 l 0.41538,-7.58375 -17.34206,0.45962 c 0,0 -21.39199,-1.03415 -32.29568,-1.49377 -10.90369,-0.45962 -29.0765,-6.5496 -33.64567,-8.04337 -4.56916,-1.49377 -4.56916,6.5496 -3.63456,13.0992 0.51922,6.77941 -19.00357,55.03963 -19.00357,55.03963 z"
     id="path3753"
     inkscape:connector-curvature="0" /><path
     d="m 478.85711,627.9143 c 0,0 -8.6,4.3 -19.1,6.2 -10.5,1.9 -21.6,-6.2 -21.6,-6.2 l -0.6,5.6 4.9,3.1 c 0,0 -1.9,15.4 -8,10.5 -3.3,-2.7 -4.2,-7.7 -4.2,-11.8 3.8,-3.4 5.6,-7.2 6.5,-10.5 1.8,0 3.6,-0.1 5.4,-0.1 l 1.3,-12.9 -5.7,0 c 0,-0.2 0,-0.3 0,-0.3 0,0 0.6,-2.8 1.2,-5.9 l 5.1,0 1.5,-14.8 -4.6,0 c 0.3,-1.8 0.7,-3.6 1.2,-5.1 0.3,-0.8 0.4,-1.6 0.4,-2.5 l 3.7,0 1.3,-13 -8.3,0 c -0.2,1.7 -0.5,3.4 -0.7,5 -0.1,0 -0.3,0 -0.4,0 -1.6,0.3 -2,4.5 -2,8.4 -0.9,1.3 -1.7,3 -2.1,4.6 -0.5,2.1 -0.5,8.4 -0.7,12.8 0,0 -0.1,0 -0.1,0 -3.5,0.4 -3.1,2.3 -3.1,2.3 0,0 -1.5,4.8 -3.3,8.5 l -5.2,0 c -1.4,3.3 -3.5,6.8 -7,9.4 -7.2,5.4 0.4,4 0.4,4 0,0 1,0 2.7,-0.1 0.8,-0.5 1.8,-1 2.8,-1.6 l -0.4,7.4 c -3.6,0.9 -7.4,2.3 -10.1,4.3 -6.8,4.9 -3.7,4.9 -1.9,13.6 1.9,8.6 -6.8,1.2 -14.2,-7.4 -7.4,-8.6 -6.8,4.3 -16.1,9.9 -9.3,5.6 -14.8,2.5 -32.1,2.5 -16.2,0 -81.5,-1.1 -116.6,-1.7 0,-0.4 -0.1,-0.7 -0.4,-0.9 -1.9,-1.4 -3.2,-2.8 -5.6,-3.2 -2.3,-0.5 -2.8,-0.5 -7.9,-2.8 -5.1,-2.3 -4.2,0 -5.6,0.9 -1.4,0.9 -3.7,1.9 -5.1,4.2 -1.4,2.3 3.7,4.6 7.9,3.7 1.5,-0.3 3.5,0 5.4,0.6 l -8.2,4.8 c 5.6,-2.5 93,12 172.4,3.2 43.8,-0.6 45.1,6.8 56.8,6.2 11.7,-0.6 29.6,-3.1 35.8,-3.1 6.2,0 -2.5,-5.6 2.5,-8 4.9,-2.5 -7.4,-3.7 -7.4,-3.7 0,0 -0.6,-3.1 3.1,-11.1 3.7,-8 8,-11.1 8,-11.1 l -2,-3.9 z"
     id="path3751"
     inkscape:connector-curvature="0" /><path
     d="m 431.45711,675.5143 c -6.2,1.4 -4.8,-1.4 -20.7,-6.9 -15.9,-5.5 -43.5,-0.7 -74.5,0.7 -31,1.4 -119.4,-7.6 -119.4,-7.6 l 0,4.1 c 0,0 41.4,5.5 113.8,10.3 72.4,4.8 147.6,2.8 147.6,2.8 0,0 2.1,-7.6 2.1,-11 0,-3.5 -42.7,6.2 -48.9,7.6 z"
     id="path3749"
     inkscape:connector-curvature="0" /><path
     d="m 496.37408,253.13704 c -0.74546,-12.2502 0,-38.61 0,-38.61 l 35.35613,0 126.72833,165.15889 1.38442,-5.03133 -130.8816,-175.4403 -42.70425,0 c 0,0 0,37.40685 0,54.68837 0,17.28153 10.86243,11.48456 10.11697,-0.76563 z"
     id="path3747"
     inkscape:connector-curvature="0" /><path
     d="m 478.55711,322.6143 -0.3,15.3 3.9,-0.1 0,-15.1 c -1.1,0 -2.3,-0.1 -3.6,-0.1 z"
     id="path3745"
     inkscape:connector-curvature="0" /><path
     d="m 435.45711,415.7143 c -2.2,4.4 -1.8,7.7 4.1,3.7 5.9,-4.1 5.2,-6.3 10.3,-4.1 5.2,2.2 3.3,7.4 7.4,5.2 4.1,-2.2 2.9,-5.9 8.5,-5.2 5.5,0.7 6.6,2.6 12.5,0.7 5.9,-1.8 11.1,-5.9 7.4,-8.5 0,0 -5.5,2.9 -13.6,3.3 -8.1,0.4 -20.6,0.4 -25.8,0.4 -5.2,0 -8.5,0.1 -10.8,4.5 z"
     id="path3743"
     inkscape:connector-curvature="0" /><path
     d="m 704.45711,492.9143 -0.2,12.3 4.1,-0.2 -0.2,-12.1 c -1.2,-0.1 -2.5,-0.1 -3.7,0 z"
     id="path3741"
     inkscape:connector-curvature="0" /><path
     d="m 483.65711,343.1143 -3.8,0.1 0.1,16.2 3.7,-0.1 c 0,-5.3 0,-10.8 0,-16.2 z"
     id="path3739"
     inkscape:connector-curvature="0" /><path
     d="m 459.55711,359.8143 5.6,-0.1 0.8,-16.2 -5.2,0.1 c -0.4,5.5 -0.8,11 -1.2,16.2 z"
     id="path3737"
     inkscape:connector-curvature="0" /><path
     d="m 453.75711,402.5143 6.7,-0.2 0.7,-14.8 -6.3,0.1 c -0.3,5.9 -0.7,10.9 -1.1,14.9 z"
     id="path3735"
     inkscape:connector-curvature="0" /><path
     d="m 456.85711,380.1143 6,-0.1 0.6,-13 -5.7,0.1 c -0.3,4.5 -0.6,8.8 -0.9,13 z"
     id="path3733"
     inkscape:connector-curvature="0" /><path
     d="m 705.15711,441.0143 4.9,-0.1 0,-13.5 -4.6,0.1 -0.3,13.5 z"
     id="path3731"
     inkscape:connector-curvature="0" /><path
     d="m 706.45711,383.0143 -0.3,15.3 3.9,-0.1 0,-15.1 c -1.2,0 -2.4,0 -3.6,-0.1 z"
     id="path3729"
     inkscape:connector-curvature="0" /><path
     d="m 477.75711,402.0143 3.3,-0.1 c 0,-4.2 0,-9.2 0,-14.8 l -3.5,0.1 0.2,14.8 z"
     id="path3727"
     inkscape:connector-curvature="0" /><path
     d="m 466.55711,402.2143 6.3,-0.1 0.1,-14.8 -6,0.1 -0.4,14.8 z"
     id="path3725"
     inkscape:connector-curvature="0" /><path
     d="m 705.55711,419.9143 4.4,-0.1 0,-13 -4.1,0.1 -0.3,13 z"
     id="path3723"
     inkscape:connector-curvature="0" /><path
     d="m 621.85711,408.0143 c 0,0 0.6,-5.5 -5,-6.7 -6.6,-1.3 -16.6,0 -10.5,2.2 6.1,2.2 15.5,4.5 15.5,4.5 z"
     id="path3721"
     inkscape:connector-curvature="0" /><path
     d="m 593.65711,400.8143 c 1.7,3.9 8.3,17.2 26.6,23.8 0,0 5,2.8 7.8,-1.1 2.8,-3.9 6.1,-3.3 -5.5,-8.9 -11.6,-5.5 -10,-4.4 -16.6,-7.8 -6.8,-3.3 -14,-9.9 -12.3,-6 z"
     id="path3719"
     inkscape:connector-curvature="0" /><path
     d="m 470.25711,359.6143 5.4,-0.1 0.1,-16.2 -5,0.1 -0.5,16.2 z"
     id="path3717"
     inkscape:connector-curvature="0" /><path
     d="m 721.75711,354.9143 c 0,0 0.7,2.7 1.4,7.8 -6.3,-0.5 -19.3,-1.6 -21.4,-1.1 -2.7,0.7 -8,4.7 -8,7.4 0,2.7 3.3,6.7 3.3,6.7 0,0 1.3,-7.4 6,-7.4 4.7,0 8.7,-3.3 13.4,4 4.5,7.1 7.1,14.7 8.5,20.7 0,2.2 -0.1,4.4 -0.1,6.7 l -0.4,8 c -1,16.7 4,36.1 4,36.1 0,0 -2,7.4 -4.7,10 -2.7,2.7 4.7,4 4.7,4 0,0 -1.3,8 -0.7,17.4 0.7,9.4 15.4,12.7 15.4,12.7 0,0 0,-7.4 3.3,-7.4 3.3,0 0,14 0,14 0,0 5.3,3.3 8,4 2.7,0.7 7.4,4.7 13.4,8.7 6,4 3.3,-2.7 0.7,-6 -2.7,-3.3 -2.7,-7.4 -4.7,-14 -2,-6.7 -5.3,-1.3 -6.7,2.7 -1.3,4 -2.7,-0.7 -2.7,-0.7 0,0 -0.7,-8.7 -0.7,-12 0,-3.3 -2,-8 -6,-15.4 -4,-7.4 -12,-3.3 -12,-3.3 0,0 -1.3,-18.7 -1.3,-22.7 0,-4 -4,-42.8 -4,-46.8 0,-4 10,1.3 14.7,3.3 4.7,2 51.5,29.4 67.5,39.5 16,10 195.29999,112.3 195.29999,112.3 l 6,-2.7 c -89.79999,-57 -63.59999,-42.3 -159.09999,-92.9 -76.9,-40.8 -121,-74.2 -123,-80.9 -2,-6.7 7.4,-12 12.7,-16 5.3,-4 -1.3,-17.4 -5.3,-22.1 -4,-4.7 -5.3,-0.7 -6,4.7 -0.7,5.3 -3.3,7.4 -10.7,9.4 -7.4,2 -7.4,-6 -7.4,-6 0,0 -3.3,-2 -2.7,7.4 0.6,9.3 9.3,9.9 9.3,9.9 z"
     id="path3715"
     inkscape:connector-curvature="0" /><path
     d="m 917.05711,546.2143 c -7.6,1.6 -2.2,4.4 -1.1,6 0,0 0.5,0 2.2,4.9 1.6,4.9 2.7,5.5 8.7,2.7 6,-2.7 -0.5,-4.4 -3.3,-4.4 -2.7,0 -2.7,-1.6 1.1,-5.5 3.9,-3.7 0.1,-5.3 -7.6,-3.7 z"
     id="path3713"
     inkscape:connector-curvature="0" /><path
     d="m 672.95711,661.6143 c -0.8,0 -1.2,0 -1.2,0 0,0 0.4,0.4 1.2,0 z"
     id="path3711"
     inkscape:connector-curvature="0" /><path
     d="m 728.45711,324.7143 c -0.3,-4.3 -0.3,-10.6 -0.3,-16.6 17.5,14.1 71.7,58.2 103.3,86.2 38,33.7 142.6,115.8 151.3,119.2 8.6,3.5 8.6,0.9 1.7,-2.5 -6.9,-3.5 -43.2,-34.6 -69.1,-53.6 -23.6,-17.2 -161.4,-141.6 -187,-164.8 0,-2 0.1,-3.2 0.1,-3.2 l 33.2,0 c 14.9,-15.9 -2.6,-14 -2.6,-14 l -40.1,0 c 0,0 0,34.2 0,50 0,15.8 10.1,10.5 9.5,-0.7 z"
     id="path3709"
     inkscape:connector-curvature="0" /><path
     d="m 944.35711,578.0143 c -17.3,6.6 -11.1,15.2 -10.3,19.3 0.8,4.1 3.3,-2.5 7.8,-5.8 4.5,-3.3 59.29999,-19.3 80.69999,-31.3 21.4,-11.9 -4.5,-5.4 -9.9,-3.7 -5.3,1.7 -56.09999,16.8 -68.29999,21.5 z"
     id="path3707"
     inkscape:connector-curvature="0" /><path
     d="m 828.15711,644.9143 c 3.3,-1.6 19.6,-6.5 28.1,-8.1 8.6,-1.6 7.7,-9.8 6.5,-12.2 -1.2,-2.4 -39.9,8.6 -57,11 -17.1,2.4 -26.9,-5.7 -29.3,-6.9 -2.4,-1.2 12.6,-3.7 26.5,-6.9 13.9,-3.2 43.2,-11.4 44.8,-13 1.6,-1.6 -5.3,-2.4 -5.7,-4.9 -0.4,-2.5 -5.3,3.3 -10.2,6.1 -4.9,2.9 -13.4,2.9 -19.1,1.6 -5.7,-1.2 -9.4,1.2 -15.9,1.2 -6.5,0 -0.8,0.41437 -0.8,0.41437 4.91667,3.69816 -13.37148,13.05741 -9.32859,1.24289 -4.04289,11.81452 13.87163,1.22867 13.87163,1.22867 l -22.38593,-0.37148 c 0,0 -2.0857,5.32866 -6.0857,3.62866 -4.1,-1.6 -27.33097,2.25381 -32.18601,4.91437 -13.39999,7.3432 5.32883,-1.61406 2.05712,-0.81421 -11.41824,2.79147 1.16408,6.38407 1.22874,-0.38564 -4.1,-3.3 2.11763,-3.80751 2.04297,-0.41421 -0.77141,35.05763 -3.29993,36.70044 -4.90001,-1.98578 -3.24296,0.35719 1.60008,2.04288 1.60008,2.04288 0,0 -1.6143,-73.70052 -0.8143,-79.40052 0.8,-5.7 7.7,-4.9 13.9,-6.9 6.1,-2 10.2,0.8 12.2,1.2 2,0.4 73.3,59.1 81.9,65.2 8.6,6.1 14.3,5.3 12.6,3.7 -1.6,-1.6 -91.7,-72.1 -97.4,-78.6 -5.7,-6.5 -0.4,-10.6 0.8,-12.6 1.2,-2 -10.6,-12.2 -13.4,-13.9 -2.9,-1.6 -2.9,2.9 -6.5,3.7 -3.6,0.8 -1.2,-2.4 -4.1,-2.9 -2.9,-0.4 -1.2,3.7 -5.3,8.1 -4.1,4.5 -6.5,1.2 -9.4,1.2 -2.9,0 -1.2,9.4 -1.2,9.4 0,0 3.3,94.1 4.1,103.1 0.8,9 3.7,9 3.3,14.3 -0.4,5.3 -1.6,4.1 -6.9,0 -5.3,-4.1 -6.9,-6.9 -11,-6.9 -4.1,0 -3.3,4.5 -4.9,4.5 -1.6,0 -22.4,0.4 -31,0.8 -8.6,0.4 -4.1,6.9 -2.9,11.4 1.2,4.5 3.3,2.9 0.4,9.4 -1.4,3.2 -2.5,4.4 -3.3,4.9 7.7,-0.2 49.1,-1.2 62.7,2.1 15.1,3.7 7.7,2.4 10.6,2 2.9,-0.4 2.4,-3.7 0.4,-8.6 -2,-4.9 -3.7,-9 -5.3,-11 -1.6,-2 0,-6.5 0.8,-9.4 0.8,-2.9 11,-4.1 18.3,-5.3 7.3,-1.2 3.7,3.3 1.2,4.1 -2.4,0.8 -7.3,2.4 -13.9,4.5 -6.5,2 11.8,2 33.4,2 21.6,0 2,5.3 -4.1,5.7 -6.1,0.4 -15.1,2 -19.1,1.6 -4.1,-0.4 0.4,-4.1 -2.4,-4.5 -2.9,-0.4 -3.7,8.6 -2.4,13 1.2,4.5 11,0.4 22,-0.4 11,-0.8 19.6,6.5 25.7,5.7 6.1,-0.8 -9.4,-5.3 -13.9,-9 -4.5,-3.7 10.6,0 18.3,4.1 7.7,4.1 0.4,8.6 -4.5,11.8 -4.9,3.3 10.2,2.9 22.4,1.6 12.2,-1.2 3.7,-3.3 -1.6,-6.1 -5.3,-2.9 -4.1,-5.3 -3.7,-10.2 0.4,-5.1 6.9,-9.2 10.2,-10.8 z"
     id="path3705"
     inkscape:connector-curvature="0"
     sodipodi:nodetypes="scssssssccssccccsscsccscsscsscsccscssssssscccsssssccsscccssssccccs" /><path
     d="m 468.45711,379.8143 5.8,-0.1 0,-13 -5.5,0.1 -0.3,13 z"
     id="path3703"
     inkscape:connector-curvature="0" /><path
     d="m 728.75711,249.2143 9.9,15.1 9.9,0 -29.6,-46.7 0,46.7 9.9,-1.3 0,-13.8 z"
     id="path3701"
     inkscape:connector-curvature="0" /><path
     d="m 704.55711,464.3143 5.5,-0.1 0,-14.4 -5.1,0.1 -0.4,14.4 z"
     id="path3699"
     inkscape:connector-curvature="0" /><path
     d="m 471.85711,322.4143 c -0.2,3.2 -0.6,8.6 -1.1,15.6 l 4.1,-0.1 0.8,-15.4 c -1.3,0 -2.6,-0.1 -3.8,-0.1 z"
     id="path3697"
     inkscape:connector-curvature="0" /><path
     d="m 467.55711,338.1143 c 0.6,-7 1,-12.5 1.2,-15.7 -0.5,0 -1,0 -1.4,0 -4.1,0.1 -2.8,10.8 -2.8,10.8 0,0 -0.1,1.8 -0.4,4.9 l 3.4,0 z"
     id="path3695"
     inkscape:connector-curvature="0" /><path
     d="m 652.75711,672.4143 c 25,-1.2 2.5,-6.7 2.5,-8.3 0,-1.6 6.7,-5.4 8.3,-7.9 1.7,-2.5 0,-14.1 0,-14.1 0,0 -15.8,-2.9 -7.5,2.9 8.3,5.8 -2.5,12.1 -2.5,12.1 0,0 -96.1,-0.4 -111.9,0 -15.8,0.4 -17.5,-3.3 -11.2,-5.4 6.2,-2.1 -3.3,-2.9 -3.3,-2.9 0,0 -27,0.4 -31.6,-0.4 -4.6,-0.8 4.2,-2.9 9.6,-2.9 5.4,0 8.3,-1.7 8.3,-1.7 0,0 -11.2,-1.2 -15.4,-1.2 -4.2,0 -0.4,-3.7 -0.4,-3.7 0,0 12.1,0 19.1,-0.4 7.1,-0.4 5,-3.3 5,-3.3 0,0 17.5,-40.4 18.3,-44.9 0.8,-4.6 1.7,-9.2 4.6,-10.4 2.9,-1.2 5,-7.9 5.8,-10.4 0.8,-2.5 -47.45763,47.35771 -53.25763,47.75771 -5.8,0.4 2.25726,-132.50164 -3.54274,-141.60164 -5.8,-9.1 -4.47126,0.22866 -4.47126,0.22866 l 3.65718,9.12912 c 0,0 -7.20015,1.97148 0.69985,-1.72852 7.9,-3.7 25.55727,-10.3857 25.55727,-17.0857 0,-6.7 3.18578,2.28585 -1.31422,-2.71415 -4.6,-5 -34.20045,25.24319 -26.85748,25.84333 9.23484,0.75478 30.62889,-24.52881 29.42889,-25.42881 -1.2,-0.8 2.70015,-2.1 -0.19985,-5 -2.9,-2.9 4.6,-1.2 4.6,-1.2 l 67.8,25.4 3.3,-3.7 c 0,0 -75.7,-29.1 -83.2,-32.9 -7.5,-3.7 -9.35726,-2.57141 -0.25726,-1.27141 9.2,1.2 8.7143,3.18578 0.4143,0.28578 -8.3,-2.9 -3.45704,-17.31437 -5.55704,-24.81437 -2.1,-7.5 -4.2,-56.6 -5.4,-69.9 -1.2,-13.3 3.3,-13.3 5.8,-17.9 2.5,-4.6 -1.7,-10.8 -8.3,-17.5 -6.7,-6.7 -7.9,-4.6 -13.7,-5 -5.8,-0.4 -24.5,-3.3 -29.1,3.3 -4.6,6.7 1.2,7.1 3.7,6.2 2.5,-0.8 2.1,-5.4 3.7,-5.4 0,0 5.4,-0.8 15.4,0.4 10,1.2 9.2,5 9.2,5 0,0 0.8,89.4 4.6,92.8 2.6,2.3 1.6,4.2 0.5,6.8 -1.5,0.3 -3.3,1 -5.3,2.5 0,0 -2.6,5.2 -16.6,5.2 l -32.1,0 c 0,0 -12.5,-0.4 -11.4,1.1 1.1,1.5 7.4,3.7 10.3,3.7 2.9,0 4.4,2.6 9.6,2.9 5.2,0.4 5.9,-1.5 13.3,-1.8 7.4,-0.4 8.5,0 16.9,-0.7 8.5,-0.7 9.6,1.1 14.7,-1.8 0.6,-0.3 1.1,-0.7 1.6,-1.1 1.2,1.2 2.4,2.4 3,4.2 1.2,4.2 -7.5,6.2 -10.8,6.7 -3.3,0.4 -0.4,20 -0.4,20 0,0 14.1,-2.1 22.5,-0.8 8.3,1.2 3.3,7.5 -0.4,7.5 -3.7,0 -1.7,1.2 -4.6,5.4 -2.9,4.2 -10,2.1 -15.4,2.1 -5.4,0 -4.6,13.7 -4.6,13.7 0,0 -1.2,119 -0.8,126 0.4,7.1 4.2,15 5.4,18.7 1.2,3.7 -2.9,41.6 -2.9,41.6 l 4.6,0 c 0,0 10.8,-5.4 26.6,-9.6 15.8,-4.2 65.3,-0.8 81.1,-0.4 15.7,-0.2 29.8,9 54.79999,7.8 z"
     id="path3693"
     inkscape:connector-curvature="0"
     sodipodi:nodetypes="ssccscsccsscsccccssssccsscscscccccsssscscccsccccscsscccccccccsssccsccscs" /><path
     d="m 766.05711,664.6143 c -8.7,0.9 -9.5,3.8 -10.3,5.3 0.4,0.3 0.8,0.6 1.1,0.8 6,0 24.6,-0.3 35.2,-1.7 12.8,-1.7 -1.1,-5.5 -6.7,-6.7 -5.5,-1 -8.2,1.2 -19.3,2.3 z"
     id="path3691"
     inkscape:connector-curvature="0" /><path
     d="m 594.65711,668.5143 c -4.4,0 -53.2,-1.1 -68.8,-0.6 -15.5,0.6 -37.2,10 -37.2,10 0,0 91.5,1.7 125.3,0.6 33.8,-1.1 12.2,-5 4.4,-6.1 -7.6,-1.2 -19.3,-3.9 -23.7,-3.9 z"
     id="path3689"
     inkscape:connector-curvature="0" /><path
     d="m 478.85711,379.5143 3.5,-0.1 c 0,-4.1 0,-8.5 0,-13 l -3.6,0.1 0.1,13 z"
     id="path3687"
     inkscape:connector-curvature="0" /><path
     d="m 689.35711,594.4143 7,-0.4 0.5,-10.5 -6.7,0.4 c -0.2,3.7 -0.5,7.2 -0.8,10.5 z"
     id="path3685"
     inkscape:connector-curvature="0" /><path
     d="m 688.05711,523.3143 3.6,-0.2 c 0.3,-3.7 0.6,-7.2 0.9,-10.5 l -3.5,0.2 c -0.3,3 -0.7,6.5 -1,10.5 z"
     id="path3683"
     inkscape:connector-curvature="0" /><path
     d="m 693.05711,505.7143 c 0.5,-5.7 0.9,-10.1 1.1,-12.6 -0.6,0 -1.1,0 -1.4,0.1 -4.3,0.2 -2.8,8.8 -2.8,8.8 0,0 -0.1,1.4 -0.4,4 l 3.5,-0.3 z"
     id="path3681"
     inkscape:connector-curvature="0" /><path
     d="m 697.85711,564.8143 -6,0.3 c -0.4,4.4 -0.7,8.8 -1.1,13 l 6.5,-0.3 0.6,-13 z"
     id="path3679"
     inkscape:connector-curvature="0" /><path
     d="m 695.15711,522.9143 4.8,-0.3 0.5,-10.5 -4.5,0.2 c -0.2,3.4 -0.5,6.9 -0.8,10.6 z"
     id="path3677"
     inkscape:connector-curvature="0" /><path
     d="m 701.45711,492.9143 c -1.4,0 -2.7,0.1 -4,0.1 -0.2,2.6 -0.5,6.9 -0.9,12.5 l 4.3,-0.2 0.6,-12.4 z"
     id="path3675"
     inkscape:connector-curvature="0" /><path
     d="m 693.85711,539.8143 5.3,-0.3 0.5,-10.8 -5,0.3 c -0.2,3.5 -0.5,7.1 -0.8,10.8 z"
     id="path3673"
     inkscape:connector-curvature="0" /><path
     d="m 698.75711,546.8143 -5.5,0.3 c -0.3,3.8 -0.6,7.7 -0.9,11.6 l 5.8,-0.3 0.6,-11.6 z"
     id="path3671"
     inkscape:connector-curvature="0" /><path
     d="m 679.65711,610.7143 c -0.1,0.6 -0.2,1.3 -0.3,2.2 l 4.1,-0.2 c 0.3,-3.4 0.7,-7.4 1.2,-11.9 l -3.9,0.2 c -0.6,5.6 -1,9.2 -1.1,9.7 z"
     id="path3669"
     inkscape:connector-curvature="0" /><path
     d="m 703.95711,522.4143 4.6,-0.2 -0.2,-10.4 -4.3,0.2 -0.1,10.4 z"
     id="path3667"
     inkscape:connector-curvature="0" /><path
     d="m 681.25711,594.8143 3.9,-0.2 c 0.3,-3.3 0.6,-6.8 1,-10.5 l -3.8,0.2 c -0.4,3.8 -0.8,7.4 -1.1,10.5 z"
     id="path3665"
     inkscape:connector-curvature="0" /><path
     d="m 684.65711,559.0143 3.7,-0.2 c 0.3,-3.9 0.7,-7.7 1,-11.6 l -3.7,0.2 c -0.3,3.9 -0.6,7.8 -1,11.6 z"
     id="path3663"
     inkscape:connector-curvature="0" /><path
     d="m 682.85711,578.6143 3.8,-0.2 c 0.4,-4.2 0.8,-8.6 1.2,-13 l -3.8,0.2 c -0.4,4.4 -0.8,8.8 -1.2,13 z"
     id="path3661"
     inkscape:connector-curvature="0" /><path
     d="m 686.45711,540.2143 3.7,-0.2 c 0.3,-3.7 0.6,-7.3 1,-10.8 l -3.6,0.2 c -0.4,3.5 -0.8,7.1 -1.1,10.8 z"
     id="path3659"
     inkscape:connector-curvature="0" /><path
     d="m 672.95711,625.9143 c -5.5,4.6 0.5,3.2 0.5,3.2 0,0 0.8,-0.1 2.1,-0.2 2.3,-1.5 5.9,-3.9 6.6,-5.3 0.1,-0.3 0.4,-2.3 0.7,-5.8 l -4.8,0.3 c -0.9,2.6 -2.4,5.5 -5.1,7.8 z"
     id="path3657"
     inkscape:connector-curvature="0" /><path
     d="m 686.25711,472.9143 c 0,0 22.2,0 29.9,-1.1 7.8,-1.1 -5,-3.9 -5,-3.9 0,0 -14.4,0.6 -23.3,1.1 -9.4,0.5 -1.6,3.9 -1.6,3.9 z"
     id="path3655"
     inkscape:connector-curvature="0" /><path
     d="m 690.15711,364.7143 c -1.7,-7.8 -5.5,-0.6 -5,10.5 0.3,6.2 -2,10.4 -4.1,12.8 8.9,-8.4 10.6,-16.3 9.1,-23.3 z"
     id="path3651"
     inkscape:connector-curvature="0" /><path
     d="m 677.85711,508.6143 -63.1,-23.4 -3.1,4.7 65.4,24.1 0.8,-5.4 z"
     id="path3649"
     inkscape:connector-curvature="0" /><path
     d="m 716.15711,626.0143 c 6.6,-0.9 3.6,-4.8 3.6,-4.8 0,0 0,-2 -0.1,-5.4 l -2.2,0.1 0,-2.7 c 0,0 0,-0.9 -0.1,-2.3 l 2.2,-0.1 c -0.1,-3.3 -0.2,-7.4 -0.2,-11.9 l -4,0.2 0.2,7.4 c -1,0.3 -2.4,1.7 -3.4,2.4 -1.6,1.1 -2.1,5.9 -5.3,5.9 -2.5,0 -3,-1 -3.4,-3.2 l 6.5,-0.4 -0.2,-11.9 -6.9,0.4 -0.1,8.6 c -1.1,-1.3 -3.9,-0.2 -7,0.7 l 0.4,-9 -7.3,0.4 c -0.4,4.6 -0.8,8.7 -1.1,11.9 l 2.2,-0.1 c -0.3,1.4 -0.2,3.2 0.1,5 l -2.9,0.2 c -0.2,1.6 -0.4,2.7 -0.5,3.3 -0.9,3.6 -2.6,6.1 -4.2,7.6 3.6,-0.3 7.9,-0.6 12.3,-0.9 l 0.1,-2.3 7.5,-0.6 0,2.3 c 2.9,-0.2 5.5,-0.4 7.8,-0.5 l 0,-2.4 c 2.9,-0.3 4.8,-0.7 5.9,-1.1 l 0.1,3.2 z"
     id="path3647"
     inkscape:connector-curvature="0" /><path
     d="m 722.25711,492.4143 c -1.5,2.7 -1.5,4.5 -1.5,4.5 0,0 2.2,-2.3 1.5,-4.5 z"
     id="path3645"
     inkscape:connector-curvature="0" /><path
     d="m 716.85711,481.4143 c 0,0 -21.8,0.8 -34.3,0 -12.5,-0.8 -10.1,5.5 -10.1,5.5 l 6.2,13.2 c 0,0 0,-8.6 0.8,-10.9 0.8,-2.3 13.2,-1.6 31.2,-0.8 8.2,0.4 11,2.2 11.6,4.1 0.7,-1.2 1.7,-2.6 3.2,-4.1 4.6,-4.7 -8.6,-7 -8.6,-7 z"
     id="path3643"
     inkscape:connector-curvature="0" /><path
     d="m 681.05711,388.0143 c -1,0.9 -2,1.8 -3.1,2.7 0,0.1 1.4,-0.8 3.1,-2.7 z"
     id="path3641"
     inkscape:connector-curvature="0" /><path
     d="m 677.35711,444.0143 c 5.5,5 7.2,-7.8 6.1,-12.2 0,0 -3.3,4.4 -6.7,4.4 -3.3,0.1 -4.9,2.8 0.6,7.8 z"
     id="path3639"
     inkscape:connector-curvature="0" /><path
     d="m 686.55711,464.6143 3.6,-0.1 c 0.4,-4.8 0.8,-9.6 1.1,-14.4 l -3.5,0.1 c -0.4,4.8 -0.8,9.6 -1.2,14.4 z"
     id="path3637"
     inkscape:connector-curvature="0" /><path
     d="m 667.95711,464.5143 c -9.7,-0.8 -12.8,-1.7 -18.3,-5.5 -5.5,-3.9 -15.5,-5 -5.5,4.4 10,9.4 22.2,16.6 27.2,12.8 4.9,-3.9 3.2,-11.1 -3.4,-11.7 z"
     id="path3635"
     inkscape:connector-curvature="0" /><path
     d="m 693.05711,427.7143 -3.5,0.1 c -0.4,4.3 -0.7,8.8 -1.1,13.5 l 3.5,-0.1 c 0.4,-4.6 0.8,-9.1 1.1,-13.5 z"
     id="path3633"
     inkscape:connector-curvature="0" /><path
     d="m 690.25711,420.1143 3.4,-0.1 c 0.4,-4.6 0.7,-9 1,-13 l -3.4,0.1 c -0.2,3.8 -0.6,8.2 -1,13 z"
     id="path3631"
     inkscape:connector-curvature="0" /><path
     d="m 700.25711,450.0143 -5.3,0.1 c -0.3,4.8 -0.7,9.6 -1,14.4 l 5.6,-0.1 0.7,-14.4 z"
     id="path3629"
     inkscape:connector-curvature="0" /><path
     d="m 697.25711,296.5143 -173.6,343.1 10.5,0 163,-330 0,-13.1 z"
     id="path3627"
     inkscape:connector-curvature="0" /><path
     d="m 183.35711,653.1143 c -3.4,-0.3 -5.3,0.7 -8.7,0.2 -0.5,2.2 -1.4,4.1 -1.4,6.3 3.5,0.4 7,0.7 10.6,1 0.1,-2 -0.6,-5.3 -0.5,-7.5 z"
     id="path3625"
     inkscape:connector-curvature="0" /><path
     d="m 161.75711,651.5143 c -0.3,2.3 -0.5,4.6 -0.5,6.9 2.5,0.3 5,0.6 7.5,0.9 0.2,-2.2 0.7,-4.5 1.3,-6.7 -2.8,-0.4 -5.6,-0.8 -8.3,-1.1 z"
     id="path3623"
     inkscape:connector-curvature="0" /><path
     d="m 161.45711,663.0143 c 0.3,3.3 0.8,9.7 1.4,11.6 2.3,0.1 4.7,0.4 7,0.5 -0.8,-2 -1.3,-8.4 -1.4,-11.4 -2.2,-0.3 -4.6,-0.5 -7,-0.7 z"
     id="path3621"
     inkscape:connector-curvature="0" /><path
     d="m 171.35711,648.0143 c 0.7,-2.2 0.5,-3.6 1.1,-5.7 -2.9,-0.5 -5,-1.9 -7.9,-2.4 -0.9,2.2 -1.7,4.6 -2.1,7.1 3,0.4 5.9,0.8 8.9,1.2 0,-0.1 0,-0.2 0,-0.2 z"
     id="path3619"
     inkscape:connector-curvature="0" /><path
     d="m 138.25711,649.1143 c -0.3,2.3 -0.6,4.7 -0.8,6.9 1.8,0.1 3.6,0.2 5.4,0.4 0.3,-2.3 0.7,-4.7 1.3,-6.9 -2,-0.1 -4,-0.3 -5.9,-0.4 z"
     id="path3617"
     inkscape:connector-curvature="0" /><path
     d="m 152.65711,603.9143 10.9,0 -14.5,10.9 c 0,0 33.5,5.4 49.7,10.8 16.3,5.4 21.7,12.7 25.3,12.7 2.2,0 10.1,-2.7 15.7,-5.4 -1.4,3.3 -3.6,6.7 -7.2,9.2 -7.3,5.2 0.3,4.1 0.3,4.1 0,0 1,0 2.7,0 3.1,-1.6 7.8,-4.2 8.7,-6 0.2,-0.3 0.7,-2.9 1.5,-7.1 l -5.9,-0.2 c 3.5,-1.7 6.2,-3.4 5.8,-4.5 -0.9,-2.7 -16.3,6.3 -17.2,2.7 -0.9,-3.6 -0.9,-7.2 2.7,-10.8 3.6,-3.6 6.3,-6.3 6.3,-11.8 0,-5.4 6.3,-11.8 -0.9,-11.8 -7.2,0 -143.499999,0 -143.499999,0 l 0.9,7.2 39.499999,7.2 19.2,-7.2 z"
     id="path3615"
     inkscape:connector-curvature="0" /><path
     d="m 183.95711,664.9143 c -3.4,-0.2 -6.9,-0.5 -10.3,-0.8 0.4,2.9 2.6,9.3 3.4,11.1 3,0 3.7,1.5 6.5,1.4 -0.3,-1.6 0.4,-9.2 0.4,-11.7 z"
     id="path3613"
     inkscape:connector-curvature="0" /><path
     d="m 137.05711,660.7143 c -0.1,2.9 0,5.5 0.1,7.6 1.8,0.3 4.2,3.6 6.4,3.9 -0.5,-2.2 -1.1,-8 -1.1,-11 -1.8,-0.2 -3.6,-0.4 -5.4,-0.5 z"
     id="path3611"
     inkscape:connector-curvature="0" /><path
     d="m 160.75711,639.1143 c -2.3,-0.4 -4.6,-0.8 -6.9,-1.1 -0.9,2.5 -2,5 -3,7.5 2.5,0.3 5.1,0.6 7.6,0.9 0.6,-2.5 1.5,-4.9 2.3,-7.3 z"
     id="path3609"
     inkscape:connector-curvature="0" /><path
     d="m 147.85711,661.6143 c 0,3.3 1.9,10.1 2.5,12.2 2.7,0.3 4.2,0.1 7.1,0.3 -0.6,-2.1 -0.9,-8.4 -1,-11.6 -2.9,-0.3 -5.8,-0.6 -8.6,-0.9 z"
     id="path3607"
     inkscape:connector-curvature="0" /><path
     d="m 163.65711,631.0143 c -2.5,-0.2 -5,-0.3 -7.5,-0.3 -0.2,1 -0.5,2 -0.9,3.1 2.3,0.4 4.7,0.7 7,1.1 0.6,-1.4 1,-2.7 1.4,-3.9 z"
     id="path3605"
     inkscape:connector-curvature="0" /><path
     d="m 266.85711,591.8143 -8.3,-0.2 c -0.8,4.5 -1.5,8.9 -2.2,13 l 8.8,0.2 1.7,-13 z"
     id="path3603"
     inkscape:connector-curvature="0" /><path
     d="m 162.95711,554.1143 c 3.1,-2.6 40,-25.9 45.7,-32.1 5.7,-6.2 34,-23.8 31.6,-28.6 -1.2,-2.3 -12.4,9.3 -20.6,13.4 -8.3,4.1 -17,12.9 -25.3,20.1 -7.3,6.4 -34.5,23.9 -40.9,28 -0.9,0.6 -1.4,0.9 -1.4,0.9 -6.7,5.1 7.8,0.8 10.9,-1.7 z"
     id="path3601"
     inkscape:connector-curvature="0" /><path
     d="m 150.75711,630.7143 c -2.6,0.1 -5.3,0.2 -7.8,0.4 -0.1,0.3 -0.3,0.6 -0.4,0.9 2.5,0.3 5,0.6 7.5,1 0.2,-0.8 0.5,-1.6 0.7,-2.3 z"
     id="path3599"
     inkscape:connector-curvature="0" /><path
     d="m 149.35711,650.0143 c -0.6,2.2 -1.1,4.5 -1.3,6.9 2.8,0.3 5.7,0.6 8.6,0.9 0.2,-2.2 0.9,-5.6 1.2,-7.9 -2.7,-0.3 -5.8,0.4 -8.5,0.1 z"
     id="path3597"
     inkscape:connector-curvature="0" /><path
     d="m 178.85711,584.9143 72.6,-51.8 6.1,-32.3 -114.8,78.7 c 0,0 -21.7,0.9 -22.6,4.5 -0.9,3.6 58.7,0.9 58.7,0.9 z"
     id="path3595"
     inkscape:connector-curvature="0" /><path
     d="m 289.45711,401.4143 4.2,0.3 1.7,-11.8 -4,-0.3 c -0.5,3.6 -1.2,7.6 -1.9,11.8 z"
     id="path3593"
     inkscape:connector-curvature="0" /><path
     d="m 283.15711,401.0143 3.1,0.2 c 0.7,-4.2 1.4,-8.1 2.1,-11.8 l -3.1,-0.2 c -0.6,3.4 -1.3,7.4 -2.1,11.8 z"
     id="path3591"
     inkscape:connector-curvature="0" /><path
     d="m 275.95711,441.3143 3.3,0.2 c 0.8,-4.4 1.5,-8.7 2.3,-13 l -3.2,-0.2 c -0.8,4.3 -1.6,8.7 -2.4,13 z"
     id="path3589"
     inkscape:connector-curvature="0" /><path
     d="m 279.75711,420.1143 3.2,0.2 c 0.7,-4.2 1.4,-8.3 2.1,-12.2 l -3.2,-0.2 c -0.6,3.9 -1.3,8 -2.1,12.2 z"
     id="path3587"
     inkscape:connector-curvature="0" /><path
     d="m 298.75711,429.6143 -4.7,-0.3 -1.5,13.1 5,0.3 1.2,-13.1 z"
     id="path3585"
     inkscape:connector-curvature="0" /><path
     d="m 292.75711,381.8143 3.8,0.2 2,-14 c -1.2,-0.1 -2.4,-0.3 -3.5,-0.4 -0.5,3 -1.3,7.9 -2.3,14.2 z"
     id="path3583"
     inkscape:connector-curvature="0" /><path
     d="m 300.65711,409.1143 -4.2,-0.3 -1.4,12.3 4.5,0.3 1.1,-12.3 z"
     id="path3581"
     inkscape:connector-curvature="0" /><path
     d="m 224.15711,405.0143 c 0,0 10.9,3.6 3.6,-3.6 -7.3,-7.3 -17.3,-10.9 -17.3,-10.9 -2.7,-1.8 -9.1,-2.7 -2.7,3.6 6.4,6.3 16.4,10.9 16.4,10.9 z"
     id="path3579"
     inkscape:connector-curvature="0" /><path
     d="m 268.85711,455.7143 c 9.5,0.9 33.7,0.9 33.7,0.9 0,0 11.2,-8.6 4.3,-7.8 0,0 -24.2,0 -29.4,0 -5.2,0 -18.1,6 -8.6,6.9 z"
     id="path3577"
     inkscape:connector-curvature="0" /><path
     d="m 301.84426,323.66336 2.41285,-24.24906 -76.94311,135.90132 8.94111,1.19913 z"
     id="path3575"
     inkscape:connector-curvature="0"
     sodipodi:nodetypes="ccccc" /><path
     d="M 241.2,428.74757 231.21784,427.78563 158.27133,541.6143 177.24839,526.97155 241.2,428.74757 Z"
     id="path3573"
     inkscape:connector-curvature="0" /><path
     d="m 306.15711,280.2143 5.3,-14 -39.4,0 18.4,14 15.7,0 z"
     id="path3571"
     inkscape:connector-curvature="0" /><path
     d="m 317.05711,268.2143 c 0.2,-3.1 -1.8,-7.3 -1.8,-7.3 l -0.4,6.7 -4.4,10.1 -6.7,71.8 c 0,0 3.9,-0.7 6.2,-2.4 l -1.5,-3.7 4.6,-64.3 c 0.1,0.2 3.8,-7.7 4,-10.9 z"
     id="path3569"
     inkscape:connector-curvature="0" /><path
     d="m 317.35711,234.0143 c 0,0 -1,-24 0,-25 l -34.8,46 19,0 15.8,-21 z"
     id="path3567"
     inkscape:connector-curvature="0" /><path
     d="m 132.05711,660.4143 c -1.6,-0.1 -4,0.2 -5.5,0.1 0,1.4 -0.8,1.7 -0.7,3.2 0,0.9 3.2,2.6 6.1,3.4 -0.1,-1.9 0,-4.2 0.1,-6.7 z"
     id="path3565"
     inkscape:connector-curvature="0" /><path
     d="m 331.25711,714.1143 4.8,0 c 4,0 7.3,-3.3 7.3,-7.3 l 0,-3.9 c 0,-4 -3.3,-7.3 -7.3,-7.3 l -4.8,0 c -4,0 -7.3,3.3 -7.3,7.3 l 0,3.9 c 0,4 3.3,7.3 7.3,7.3 z"
     id="path3563"
     inkscape:connector-curvature="0" /><path
     d="m 383.25711,717.0143 4.8,0 c 4,0 7.3,-3.3 7.3,-7.3 l 0,-3.9 c 0,-4 -3.3,-7.3 -7.3,-7.3 l -4.8,0 c -4,0 -7.3,3.3 -7.3,7.3 l 0,3.9 c 0,4 3.3,7.3 7.3,7.3 z"
     id="path3561"
     inkscape:connector-curvature="0" /><path
     d="m 280.95711,712.0143 4.8,0 c 4,0 7.3,-3.3 7.3,-7.3 l 0,-3.9 c 0,-4 -3.3,-7.3 -7.3,-7.3 l -4.8,0 c -4,0 -7.3,3.3 -7.3,7.3 l 0,3.9 c -0.1,4 3.2,7.3 7.3,7.3 z"
     id="path3559"
     inkscape:connector-curvature="0" /><path
     d="m 229.55711,706.9143 4.8,0 c 4,0 7.3,-3.3 7.3,-7.3 l 0,-3.9 c 0,-4 -3.3,-7.3 -7.3,-7.3 l -4.8,0 c -4,0 -7.3,3.3 -7.3,7.3 l 0,3.9 c 0,4 3.3,7.3 7.3,7.3 z"
     id="path3557"
     inkscape:connector-curvature="0" /><path
     d="m 433.55711,718.7143 4.8,0 c 4,0 7.3,-3.3 7.3,-7.3 l 0,-3.9 c 0,-4 -3.3,-7.3 -7.3,-7.3 l -4.8,0 c -4,0 -7.3,3.3 -7.3,7.3 l 0,3.9 c -0.1,4 3.2,7.3 7.3,7.3 z"
     id="path3555"
     inkscape:connector-curvature="0" /><path
     d="m 586.35711,717.3143 4.8,0 c 4,0 7.3,-3.3 7.3,-7.3 l 0,-3.9 c 0,-4 -3.3,-7.3 -7.3,-7.3 l -4.8,0 c -4,0 -7.3,3.3 -7.3,7.3 l 0,3.9 c -0.1,3.9 3.2,7.3 7.3,7.3 z"
     id="path3553"
     inkscape:connector-curvature="0" /><path
     d="m 485.05711,717.8143 4.8,0 c 4,0 7.3,-3.3 7.3,-7.3 l 0,-3.9 c 0,-4 -3.3,-7.3 -7.3,-7.3 l -4.8,0 c -4,0 -7.3,3.3 -7.3,7.3 l 0,3.9 c -0.1,4 3.2,7.3 7.3,7.3 z"
     id="path3551"
     inkscape:connector-curvature="0" /><path
     d="m 535.25711,718.2143 4.8,0 c 4,0 7.3,-3.3 7.3,-7.3 l 0,-3.9 c 0,-4 -3.3,-7.3 -7.3,-7.3 l -4.8,0 c -4,0 -7.3,3.3 -7.3,7.3 l 0,3.9 c -0.1,4 3.2,7.3 7.3,7.3 z"
     id="path3549"
     inkscape:connector-curvature="0" /><path
     d="m 803.25711,768.7143 c 2.1,-6.9 5.7,-17.3 10.3,-26 7.7,-14.4 24.9,-15.3 47,-32.6 22.1,-17.3 5.8,-10.5 -1,-7.7 -6.7,2.9 -23,11.5 -34.5,15.3 -11.5,3.8 -6.7,-3.8 4.8,-11.5 11.5,-7.7 -4.8,-9.6 -5.8,-14.4 -1,-4.8 4.8,-5.8 4.8,-10.5 0,-4.8 12.5,-7.7 12.5,-7.7 0,0 -30.7,1.5 -78.2,3.3 2.8,3.9 6.9,9.3 11.3,14.2 5.1,5.7 16.5,9.1 17,14.2 0.6,5.1 -9.7,-1.7 -19.3,-9.7 -5.1,-4.2 -11.5,-12 -16.3,-18.5 -67.8,2.5 -166.2,5.5 -258.7,6.1 -163,1 -282.9,-14.4 -282.9,-14.4 l -17.9,15.4 -69.3,-8 c 0,0 5,7.6 14.5,20.1 12.5,13 35.1,18.1 35.1,18.1 7.2,0 12.2,4.9 13.4,10 -1.3,0.8 -0.2,1.1 0,2.9 0.1,0.9 -0.2,1 -0.5,1 0.1,0 0.1,0.1 0.2,0.1 0.1,0.7 0.1,1.4 0.2,2.2 -1,0.6 -1.9,1.7 -1.7,3.4 0.1,1.6 3.3,9.3 4.3,10.3 -12.4,31.1 -14.3,30 -19.3,50 -0.1,0.3 26.8,0 26.8,0 9.4,-8.5 13.6,-13.9 35.8,-13.9 22.1,0 42.8,24 56.7,39 l 2.4,0 c 13.9,-15 35.8,-37.7 57.9,-37.7 22,0 39.8,22.8 53.7,37.7 l 2.7,0 c 13.9,-14.9 33.7,-27.3 55.7,-27.3 21.9,0 41.7,12.5 55.5,27.3 l 2.1,0 c 13.9,-15.4 34.1,-28.3 56.5,-28.3 22,0 41.8,13.4 55.7,28.3 14,-16.7 35,-31.4 58.4,-31.4 18.6,0 35.6,6.7 48.8,17.7 12.8,-21.1 35.3,-35.6 61.3,-37 z"
     id="path3547"
     inkscape:connector-curvature="0" /><path
     d="m 728.75711,696.4143 c 0,-4.1 3.4,-7.5 7.5,-7.5 l 10.1,0 c 4.1,0 7.5,3.4 7.5,7.5 l 0,10.1 c 0,4.1 -3.4,7.5 -7.5,7.5 l -10.1,0 c -4.1,0 -7.5,-3.4 -7.5,-7.5 l 0,-10.1 z"
     id="path3545"
     inkscape:connector-curvature="0" /><path
     d="m 677.85711,698.8143 c 0,-4.1 3.4,-7.5 7.5,-7.5 l 10.1,0 c 4.1,0 7.5,3.4 7.5,7.5 l 0,10.1 c 0,4.1 -3.4,7.5 -7.5,7.5 l -10.1,0 c -4.1,0 -7.5,-3.4 -7.5,-7.5 l 0,-10.1 z"
     id="path3543"
     inkscape:connector-curvature="0" /><path
     d="m 626.95711,701.8143 c 0,-4.1 3.4,-7.5 7.5,-7.5 l 10.1,0 c 4.1,0 7.5,3.4 7.5,7.5 l 0,10.1 c 0,4.1 -3.4,7.5 -7.5,7.5 l -10.1,0 c -4.1,0 -7.5,-3.4 -7.5,-7.5 l 0,-10.1 z"
     id="path3541"
     inkscape:connector-curvature="0" /><path
     d="m 576.05711,702.5143 c 0,-4.1 3.4,-7.5 7.5,-7.5 l 10,0 c 4.1,0 7.5,3.4 7.5,7.5 l 0,10.1 c 0,4.1 -3.4,7.5 -7.5,7.5 l -10.1,0 c -4.1,0 -7.5,-3.4 -7.5,-7.5 l 0,-10.1 z"
     id="path3539"
     style="fill:#ffffff"
     inkscape:connector-curvature="0" /><path
     d="m 525.15711,703.9143 c 0,-4.1 3.4,-7.5 7.5,-7.5 l 10.1,0 c 4.1,0 7.5,3.4 7.5,7.5 l 0,10.1 c 0,4.1 -3.4,7.5 -7.5,7.5 l -10.2,0 c -4.1,0 -7.5,-3.4 -7.5,-7.5 l 0,-10.1 z"
     id="path3537"
     style="fill:#ffffff"
     inkscape:connector-curvature="0" /><path
     d="m 474.25711,703.9143 c 0,-4.1 3.4,-7.5 7.5,-7.5 l 10.1,0 c 4.1,0 7.5,3.4 7.5,7.5 l 0,10.1 c 0,4.1 -3.4,7.5 -7.5,7.5 l -10.1,0 c -4.1,0 -7.5,-3.4 -7.5,-7.5 l 0,-10.1 z"
     id="path3535"
     style="fill:#ffffff"
     inkscape:connector-curvature="0" /><path
     d="m 423.35711,704.2143 c 0,-4.1 3.4,-7.5 7.5,-7.5 l 10.1,0 c 4.1,0 7.5,3.4 7.5,7.5 l 0,10.1 c 0,4.1 -3.4,7.5 -7.5,7.5 l -10.1,0 c -4.1,0 -7.5,-3.4 -7.5,-7.5 l 0,-10.1 z"
     id="path3533"
     style="fill:#ffffff"
     inkscape:connector-curvature="0" /><path
     d="m 372.45711,702.5143 c 0,-4.1 3.4,-7.5 7.5,-7.5 l 10.1,0 c 4.1,0 7.5,3.4 7.5,7.5 l 0,10.1 c 0,4.1 -3.4,7.5 -7.5,7.5 l -10.1,0 c -4.1,0 -7.5,-3.4 -7.5,-7.5 l 0,-10.1 z"
     id="path3531"
     style="fill:#ffffff"
     inkscape:connector-curvature="0" /><path
     d="m 321.55711,698.3143 c 0,-3.3 2.7,-6 6,-6 l 13,0 c 3.3,0 6,2.7 6,6 l 0,13 c 0,3.3 -2.7,6 -6,6 l -13,0 c -3.3,0 -6,-2.7 -6,-6 l 0,-13 z"
     id="path3529"
     style="fill:#ffffff"
     inkscape:connector-curvature="0" /><path
     d="m 270.65711,696.0143 c 0,-3.3 2.7,-6 6,-6 l 13,0 c 3.3,0 6,2.7 6,6 l 0,13 c 0,3.3 -2.7,6 -6,6 l -13,0 c -3.3,0 -6,-2.7 -6,-6 l 0,-13 z"
     id="path3527"
     style="fill:#ffffff"
     inkscape:connector-curvature="0" /><path
     d="m 202.35711,777.9143 c 0,5.6 -1.7,5.9 -2.3,6.4 l 1.9,-29.7 c 0,0 0.7,-0.4 2.3,10.2 1.6,10.5 -1.9,11.7 -1.9,13.1 z"
     id="path3523"
     inkscape:connector-curvature="0" /><path
     d="m 317.95711,769.0143 c -8.6,-0.1 -28.9,-0.8 -40,-1.3 -11.1,-0.5 -16.7,-1.9 -19.7,-1.9 -3,-0.1 -9.6,-3 8.1,-2.1 0,0 20.2,1.3 31.9,2.1 11.7,0.8 24.3,1 24.3,1 3.5,-0.1 4,2.4 -4.6,2.2 z"
     id="path3521"
     style="fill:#ffffff"
     inkscape:connector-curvature="0" /><path
     d="m 456.15711,757.3143 c -18.7,0 -93.4,-2.2 -117.3,-3 -23.9,-0.7 -49.3,-4.5 -69.5,-6 -20.2,-1.5 -57.5,-6 -60.5,-6.7 -3,-0.7 -13.4,-3.7 -3.7,-14.2 15.7,14.2 47.1,14.2 85.9,17.9 38.8,3.7 75.5,5.2 108.3,6 32.9,0.7 56,2.2 60.5,1.5 4.5,-0.8 15,4.5 -3.7,4.5 z"
     id="path3519"
     style="fill:#ffffff"
     inkscape:connector-curvature="0" /><path
     d="m 509.95711,736.6143 c -310,0.7 -328,-23.7 -282.7,-18 45.3,5.8 128.7,15.1 279.1,12.9 150.4,-2.2 214.3,-3.6 233.8,-9.4 19.4,-5.8 26.6,-11.5 25.2,-7.9 -1.4,3.6 3.6,5.8 11.5,1.4 7.9,-4.3 14.4,-7.2 12.9,-4.3 -1.4,2.9 1.4,6.5 6.5,2.2 5,-4.3 12.9,-8.6 10.1,-4.3 -3,4.4 13.6,26.7 -296.4,27.4 z"
     id="path3517"
     style="fill:#ffffff"
     inkscape:connector-curvature="0" /><path
     d="m 557.05711,751.0143 c 0,0 31.6,-2.7 76.6,-3.8 45,-1.1 73.9,-0.5 108.2,-2.2 34.3,-1.6 59.8,-5.4 59.8,-5.4 0,0 -32.3,12.4 -78,11.9 -45.7,-0.5 -73.9,-1.1 -119,1.6 -44.9,2.7 -87.2,4.4 -47.6,-2.1 z"
     id="path3515"
     style="fill:#ffffff"
     inkscape:connector-curvature="0" /><path
     d="m 739.85711,764.8143 c -10.8,3 -13,2.5 -51.3,5.1 -39.5,1.5 -81.6,1.3 -55,-0.3 0,0 69.6,-1.5 87.2,-3.6 17.5,-2.2 29,-4 19.1,-1.2 z"
     id="path3513"
     style="fill:#ffffff"
     inkscape:connector-curvature="0" /><path
     d="m 892.25711,793.8143 c 1.9,1.6 1,-1.4 0.8,-2.7 -0.2,-1.3 -2.1,-1.4 -2.1,-1.4 -2,0 -0.6,2.5 1.3,4.1 z"
     id="path3511"
     inkscape:connector-curvature="0" /><path
     d="m 1030.4571,566.3143 c 0,0 -70.59999,77.5 -77.99999,87.2 -7.4,9.7 -22.6,-4.6 -32.8,-8.8 -10.2,-4.2 -18.9,-12.5 -18.9,-18.5 0,-6 11.1,-3.2 16.6,-2.8 5.5,0.5 6.9,-2.8 6.9,-6.5 0,-3.7 -12,-4.2 -23.1,-3.7 -11.1,0.5 -9.7,17.1 -9.7,24 0,6.9 -5.5,7.4 -9.7,9.2 -4.2,1.8 3.2,3.2 5.5,6.5 2.3,3.2 4.2,7.4 4.2,14.3 0,6.9 12.9,-4.2 14.8,-6.9 1.8,-2.8 -6,-3.2 -6,-3.2 l 1.4,-15.7 c 0,0 13.8,5.5 18.9,9.7 5.1,4.2 1.8,6 -4.6,13.8 -6.5,7.8 -19.4,14.8 -30.5,16.6 -11.1,1.8 0,3.7 2.3,3.7 2.3,0 2.8,4.2 -1.8,14.3 -4.6,10.2 -30.9,24 -49.8,32.3 -18.9,8.3 -14.7,10.4 -19.8,18.9 -10.6,17.5 -7.4,24.5 -5.1,24.9 2.3,0.5 9.7,7.4 16.6,11.5 6.9,4.2 12,6.9 10.2,1.8 -1.8,-5.1 -6,-5.1 -11.5,-8.3 -5.5,-3.2 1.4,-6 -5.5,-6 -6.9,0 -4.6,-4.2 -3.2,-11.1 1.4,-6.9 10.6,-13.8 35.1,-26.3 24.5,-12.5 46.2,-36 53.1,-49.8 6.9,-13.8 24.5,-28.6 24.5,-28.6 0,0 4.2,2.8 11.5,5.1 7.4,2.3 11.5,-2.3 12.9,-4.6 1.4,-2.3 64.59999,-72.5 75.69999,-86.8 10.8,-14 -0.2,-6.2 -0.2,-6.2 z"
     id="path3509"
     inkscape:connector-curvature="0" /><path
     d="m 839.95711,806.9143 c -3,0.5 1.2,3 2.8,4.6 1.6,1.6 2.1,-1.4 6.3,-3.5 4.2,-2.1 8.6,-2.8 12.3,-3.7 3.7,-0.9 4.4,-5.1 5.1,-6.7 0.7,-1.6 0,-6.5 -2.1,-6.9 -2.1,-0.5 -0.9,2.1 -2.8,4.2 -1.9,2.1 -4.6,0.9 -4.6,0.9 0,0 1.6,-2.1 2.1,-4.4 0.5,-2.3 -1.2,-7.9 -4.9,-8.6 -3.7,-0.7 -0.5,4.6 -3.5,8.1 -3,3.5 -5.6,2.8 -8.1,4.2 -2.5,1.4 0.5,2.5 0,6.9 -0.5,4.4 -2.6,4.9 -2.6,4.9 z"
     id="path3507"
     inkscape:connector-curvature="0" /><path
     d="m 897.35711,795.5143 c -2,-0.5 1.4,1.2 -3.5,7.1 -4.9,5.9 -4.4,-2.7 -4.4,-2.7 0,0 -4.2,4.2 -2.7,-1.7 1.5,-5.9 -7.6,-10.6 -11.1,-7.7 -2.4,2 5.7,0.9 1.3,8.7 -4.4,7.9 -4.7,1.5 -17.5,8.9 -7,4 -13.1,5.8 -17.2,6.7 -0.1,-0.6 -0.8,-1.2 -1.3,-1.5 -1.6,-1 -6.7,-2.6 -18.6,-2.6 -11.9,0 -18.1,5.2 -18.1,5.2 -7.5,1.8 -2.8,3.4 -2.8,3.4 l 86,0 c 0,0 6.7,-0.7 11.2,-10.9 1.3,-3 0.7,-12.4 -1.3,-12.9 z"
     id="path3505"
     inkscape:connector-curvature="0" /><path
     d="m 883.95711,808.5143 c -5.5,3.9 -15.6,3.9 -15.6,3.9 0,0 -0.4,-1.2 6.2,-2.7 6.6,-1.6 6.6,-7 6.6,-7 0,0 8.2,1.9 2.8,5.8 z"
     id="path3503"
     inkscape:connector-curvature="0" /><path
     d="m 833.85711,803.9143 c 7,-9.1 -10.5,-13.2 -17.4,-13.9 -7,-0.7 -18.1,3.5 -18.8,0.7 -0.7,-2.8 8.4,-1.4 13.9,-5.6 5.6,-4.2 -10.5,-15.3 -37.6,-0.7 -27.2,14.6 -26.5,34.9 -26.5,34.9 l 41.1,0 c 0,0 7.8,-10.7 18.8,-16.8 14,-7.7 21.2,8.3 26.5,1.4 z"
     id="path3501"
     inkscape:connector-curvature="0" /><path
     d="m 786.95711,789.5143 c -5.5,2.7 -7.8,3.5 -11.3,9 -3.5,5.5 -9,11.3 -1.2,9 7.8,-2.3 10.5,-7.4 13.6,-3.9 3.1,3.5 0.8,1.9 -4.3,6.2 -5.1,4.3 -5.8,6.2 -5.8,6.2 l -23.8,0 2.7,-6.6 c 0,0 4.7,-12.9 13.6,-17.1 9,-4.3 10.9,-7.4 16,-7.8 5.2,-0.5 6,2.2 0.5,5 z"
     id="path3499"
     inkscape:connector-curvature="0" /><path
     d="m 356.05711,798.4143 c 7.1,-5.7 18.7,-10.9 3.3,-10 -11.2,0.7 -20.2,6.4 -26,11.4 -19.9,4 -23,19.4 -23,19.4 l 78.1,0 c 0,0.1 1.9,-19.2 -32.4,-20.8 z"
     id="path3497"
     inkscape:connector-curvature="0" /><path
     d="m 361.25711,809.1143 c -13.7,-1.2 -39,5.1 -34.3,-0.4 0,0 6.9,-5.5 12.4,-5.5 5.5,0 2.6,-4.3 5.6,-2.8 3,1.6 2.1,-0.4 9,2 6.9,2.4 21,7.9 7.3,6.7 z"
     id="path3495"
     inkscape:connector-curvature="0" /><path
     d="m 175.05711,632.7143 c -2.2,-0.5 -4.4,-0.9 -6.7,-1.2 -0.1,0 -0.1,0 -0.2,0 -0.5,1.2 -1.2,2.6 -1.8,4.1 2.7,0.5 5.4,0.9 8.1,1.4 0.3,-1.5 0.5,-2.9 0.6,-4.3 z"
     id="path3493"
     inkscape:connector-curvature="0" /><path
     d="m 282.75711,441.8143 5.1,0.3 1.9,-13.1 -4.8,-0.3 c -0.7,4.3 -1.5,8.7 -2.2,13.1 z"
     id="path3491"
     inkscape:connector-curvature="0" /><path
     d="m 257.45711,803.3143 c 0.7,-0.3 1.4,-0.6 2.2,-0.6 3.9,0 4.3,-3 -0.4,-7.3 -3.5,-3.2 -9.4,-0.7 -13.6,0.8 1,-0.8 1.7,-1.9 1.9,-3.8 0.9,-9.1 -16.9,-6.9 -30.2,1.3 -1.3,0.8 -2.5,1.6 -3.7,2.4 -0.1,0 -0.2,0 -0.3,0 -11.8,-1.4 -7.5,1.9 -18.4,5.2 -10.8,3.3 -8,0 -16.5,-0.9 -8.5,-0.9 -11.3,-0.9 -23.1,4.2 -11.8,5.2 -12.7,14.8 -12.7,14.8 l 63.6,0 c 0,0 0,0 0.1,0 l 74.8,0 c -0.1,-0.1 -10,-11.1 -23.7,-16.1 z"
     id="path3489"
     inkscape:connector-curvature="0" /><path
     d="m 191.65711,812.6143 c -1.3,-0.5 -4.3,-0.5 -13.1,0.8 -8.8,1.3 -6,-0.3 -5.4,-2.5 0.6,-2.2 5.3,-0.8 3.9,-1.5 -1.3,-0.7 -4.3,-1 -9.8,-0.8 -5.4,0.2 -5.8,0.5 -3.8,-2 2,-2.5 8.1,-2.2 11.6,-2 3.5,0.2 14.6,5.8 14.6,5.8 0,0 3.3,2.7 2,2.2 z"
     id="path3487"
     inkscape:connector-curvature="0" /><path
     d="m 637.45711,716.0143 4.8,0 c 4,0 7.3,-3.3 7.3,-7.3 l 0,-3.9 c 0,-4 -3.3,-7.3 -7.3,-7.3 l -4.8,0 c -4,0 -7.3,3.3 -7.3,7.3 l 0,3.9 c 0,3.9 3.3,7.3 7.3,7.3 z"
     id="path3485"
     style="fill:#ffffff"
     inkscape:connector-curvature="0" /><path
     d="m 185.65711,643.4143 c -2.7,-0.4 -5.5,-0.9 -8.2,-1.3 -0.7,2.2 -1.4,4.4 -2.1,6.6 3.1,0.4 6.2,0.8 9.3,1.1 0.3,-2.1 0.7,-4.2 1,-6.4 z"
     id="path3483"
     inkscape:connector-curvature="0" /><path
     d="m 133.85711,643.0143 c 0.4,-2.6 1,-5.1 1.8,-7.3 -2,-0.2 -4.1,-0.4 -6.1,-0.5 -0.9,2.4 0.8,4.9 0.4,8.5 2,0 1.7,0.5 3.7,0.6 0.1,-0.4 0.2,-0.9 0.2,-1.3 z"
     id="path3481"
     inkscape:connector-curvature="0" /><path
     d="m 186.85711,636.2143 c -2.3,-0.9 -4.8,-1.7 -7.4,-2.4 -0.2,1.2 -0.4,2.5 -0.8,3.9 2.6,0.4 5.2,0.9 7.7,1.3 0.2,-1 0.4,-1.9 0.5,-2.8 z"
     id="path3479"
     inkscape:connector-curvature="0" /><path
     d="m 127.15711,655.7143 c 1.7,0 3.4,0.1 5.2,0.1 0.2,-2.2 0.4,-4.5 0.7,-6.9 -2,-0.1 -1.4,0.2 -3.3,0.2 -0.1,2.2 -2.6,4.1 -2.6,6.6 z"
     id="path3477"
     inkscape:connector-curvature="0" /><path
     d="m 189.65711,728.3143 c -0.5,-0.3 -0.3,0 0,0 l 0,0 z"
     id="path3475"
     inkscape:connector-curvature="0" /><path
     d="m 496.25711,805.8143 c -0.6,-2.1 -2.6,-4.8 -8.5,-6.9 -5.3,-1.9 -7.3,-1.3 -8,-0.1 -0.6,-0.1 -1.1,-0.3 -1.7,-0.4 l -1.2,-2.5 c 0,0 -7,-2 -14.9,-1.5 -3.3,0.2 -5.7,1.6 -7.3,3.2 -19.6,3.3 -29.9,21.6 -29.9,21.6 l 83,0 c -0.1,0.1 -3.8,-8.5 -11.5,-13.4 z"
     id="path3473"
     inkscape:connector-curvature="0" /><path
     d="m 485.95711,810.0143 c -8,-0.5 -14,-4 -22.5,-2.5 -8.5,1.5 -18.5,1.5 -15.5,-1 0,0 2.5,-3 6,-3.5 3.5,-0.5 3.5,-4.5 11.5,-3.5 8,1 10.5,4 10.5,4 0,0 2.5,-2.5 7.5,0 5,2.5 10.5,7 2.5,6.5 z"
     id="path3471"
     inkscape:connector-curvature="0" /><path
     d="m 688.35711,713.6143 4.8,0 c 4,0 7.3,-3.3 7.3,-7.3 l 0,-3.9 c 0,-4 -3.3,-7.3 -7.3,-7.3 l -4.8,0 c -4,0 -7.3,3.3 -7.3,7.3 l 0,3.9 c 0,4 3.3,7.3 7.3,7.3 z"
     id="path3469"
     style="fill:#ffffff"
     inkscape:connector-curvature="0" /><path
     d="m 739.25711,711.0143 4.8,0 c 4,0 7.3,-3.3 7.3,-7.3 l 0,-3.9 c 0,-4 -3.3,-7.3 -7.3,-7.3 l -4.8,0 c -4,0 -7.3,3.3 -7.3,7.3 l 0,3.9 c 0,4 3.3,7.3 7.3,7.3 z"
     id="path3467"
     style="fill:#ffffff"
     inkscape:connector-curvature="0" /><path
     d="m 609.05711,804.7143 c -1,-1.9 -2.4,-3.8 -4.2,-4.8 -4.5,-2.5 -6.5,-4.5 -11,-4 -4.5,0.5 -11,-2 -18.4,-2 -3.1,0 -5.7,1.5 -7.8,3.3 -20.2,3.7 -32.8,22 -32.8,22 l 87.8,0 c 0,0.1 -5,-9.5 -13.6,-14.5 z"
     id="path3465"
     inkscape:connector-curvature="0" /><path
     d="m 579.05711,805.7143 c -12.1,1.7 -21.6,4.3 -21.6,4.3 0,0 6.9,-7.8 17.3,-8.6 10.4,-0.8 16.4,2.6 4.3,4.3 z"
     id="path3463"
     inkscape:connector-curvature="0" /><path
     d="m 707.75711,796.3143 -0.8,-1.4 c 0,0 -2.5,-2 -6.5,-2 -4,0 -8,0 -14.9,1.5 -1.1,0.2 -2.2,0.6 -3.2,1 -23.7,3.2 -32.4,23.9 -32.4,23.9 l 84.4,0 c -0.2,0 -4.3,-18.3 -26.6,-23 z"
     id="path3461"
     inkscape:connector-curvature="0" /><path
     d="m 697.45711,810.0143 c -5.2,2.6 -36.3,5.2 -36.3,5.2 0,0 6.9,-2.6 13,-6 0,0 12.1,-13 20.7,-12.1 8.6,0.9 7.8,1.7 2.6,4.3 -1.2,0.6 -2,0.9 -2.5,1 1,-0.1 4,-0.2 9.4,1.6 10.4,3.5 11.2,8.6 11.2,8.6 0,0 -12.9,-5.2 -18.1,-2.6 z"
     id="path3459"
     inkscape:connector-curvature="0" /><path
     d="m 147.25711,637.5143 c -2.5,-0.3 -3.8,-1 -6.3,-1.2 -0.7,2 -1.3,4.3 -1.8,6.8 -0.1,0.5 -0.2,1 -0.3,1.4 2.2,0.1 4.4,0.3 6.6,0.5 1,-2.6 0.8,-4.9 1.8,-7.5 z"
     id="path3457"
     inkscape:connector-curvature="0" /><path
     d="m 325.75711,649.6143 c 13.2,-2.3 31.2,1.6 40.5,2.3 9.3,0.8 9.3,-4.7 13.2,-8.6 3.9,-3.9 8.6,-10.1 6.2,-11.7 -2.3,-1.6 -9.3,2.3 -14.8,4.7 -5.5,2.3 -13.2,3.9 -21,3.9 l -22.6,0 c -3,0.1 -1.5,9.4 -1.5,9.4 z"
     id="path3455"
     inkscape:connector-curvature="0" /><path
     d="m 448.15711,472.6143 c 1,-7 1.8,-12.5 2.2,-15.7 -0.7,0 -1.3,0 -1.8,0 -5.4,0 -4,10.8 -4,10.8 0,0 -0.3,1.8 -0.7,4.9 l 4.3,0 z"
     id="path3453"
     inkscape:connector-curvature="0" /><path
     d="m 460.65711,494.1143 5.7,0 0.5,-13 -5.3,0 -0.9,13 z"
     id="path3451"
     inkscape:connector-curvature="0" /><path
     d="m 293.45711,647.3143 -2.6,-1.8 c 2.6,-1.6 0.7,-4.6 0.7,-4.6 0,0 0.1,-2.5 0.4,-6.7 l -4,-0.1 c 0,-0.8 -0.1,-1.7 -0.1,-2.6 0,-1.4 0,-2.6 0.1,-3.7 l 4.4,0.1 c 0.3,-4.2 0.6,-9.2 0.9,-14.8 l -3.3,-0.1 c -0.1,-2.7 -0.9,-4.1 -0.9,-4.1 0,0 -5.6,0 -9,0 -2.1,0 -4,1.1 -5.8,3.7 l -1.6,0 -0.3,3.5 c -0.4,0.9 -0.9,1.9 -1.3,3 -2.8,7.3 -2.3,7.3 -4.5,18.1 -2,9.3 -5.5,9.4 -6.4,9.2 14,3.3 33.3,0.9 33.3,0.9 z"
     id="path3449"
     inkscape:connector-curvature="0" /><path
     d="m 467.75711,457.5143 c -1.4,-0.1 -3,-0.1 -4.6,-0.2 l -1.1,15.3 5.1,0 0.6,-15.1 z"
     id="path3447"
     inkscape:connector-curvature="0" /><path
     d="m 259.75711,646.3143 c 0,0 0.1,0 0.2,0 -0.1,0 -0.1,0 -0.2,0 z"
     id="path3445"
     inkscape:connector-curvature="0" /><path
     d="m 244.35711,646.1143 c 4.5,0 9.9,0.1 15.4,0.1 l 1.7,-12.9 -10.2,-0.3 c -0.4,2 -0.7,3.4 -0.9,4 -1.5,4.6 -3.9,7.4 -6,9.1 z"
     id="path3443"
     inkscape:connector-curvature="0" /><path
     d="m 377.95711,521.7143 -8.9,4 c 0,0 -33.3,87.6 -38.1,102.5 -4.8,14.9 3.1,3.5 3.9,0.9 0.9,-2.6 2.6,-7 4.4,-9.2 1.8,-2.2 3.5,4.8 2.6,11.4 -0.9,6.6 4.4,2.6 5.7,-0.4 1.3,-3.1 -0.4,-5.7 -2.2,-10.5 -1.8,-4.8 -0.8,-8.4 0.2,-12.4 2.7,-11.7 32.4,-86.3 32.4,-86.3 z"
     id="path3441"
     inkscape:connector-curvature="0" /><path
     d="m 454.75711,501.8143 -6.2,0 c -0.6,4.4 -1.2,8.9 -1.8,13.5 l 6.6,0 1.4,-13.5 z"
     id="path3439"
     inkscape:connector-curvature="0" /><path
     d="m 461.85711,611.8143 -9.3,0 -0.9,12.8 c 3.6,-0.1 6.9,-0.1 9.7,-0.1 l 0.5,-12.7 z"
     id="path3437"
     inkscape:connector-curvature="0" /><path
     d="m 459.15711,515.2143 6.4,0 0.5,-13.5 -6,0 -0.9,13.5 z"
     id="path3435"
     inkscape:connector-curvature="0" /><path
     d="m 462.65711,590.7143 -8.7,0 -1,14.8 9.1,0 0.6,-14.8 z"
     id="path3433"
     inkscape:connector-curvature="0" /><path
     d="m 440.35711,562.8143 8.1,0 1.7,-16.2 -7.6,0 c -0.7,5.6 -1.4,11 -2.2,16.2 z"
     id="path3431"
     inkscape:connector-curvature="0" /><path
     d="m 452.45711,524.2143 -6.9,0 c -0.6,4.8 -1.3,9.6 -1.9,14.4 l 7.3,0 1.5,-14.4 z"
     id="path3429"
     inkscape:connector-curvature="0" /><path
     d="m 274.15711,494.5143 5.4,0.1 2,-15.4 c -1.7,-0.1 -3.4,-0.2 -5,-0.3 -0.4,3.3 -1.3,8.7 -2.4,15.6 z"
     id="path3427"
     inkscape:connector-curvature="0" /><path
     d="m 275.75711,523.7143 -6.2,-0.2 c -0.7,4.3 -1.4,8.8 -2.1,13.4 l 6.6,0.2 1.7,-13.4 z"
     id="path3425"
     inkscape:connector-curvature="0" /><path
     d="m 282.55711,592.2143 -8.1,-0.2 -1.2,13 8.5,0.2 0.8,-13 z"
     id="path3423"
     inkscape:connector-curvature="0" /><path
     d="m 284.05711,568.9143 -7.3,-0.2 -1.5,16.1 7.8,0.2 1,-16.1 z"
     id="path3421"
     inkscape:connector-curvature="0" /><path
     d="m 252.45711,626.8143 9.8,0.3 1.9,-14.8 -9.1,-0.2 c -1,5.7 -1.9,10.7 -2.6,14.7 z"
     id="path3419"
     inkscape:connector-curvature="0" /><path
     d="m 246.15711,604.2143 4.9,0.1 c 0.7,-4.1 1.5,-8.5 2.3,-13 l -4.8,-0.1 c -0.9,4.7 -1.7,9.1 -2.4,13 z"
     id="path3417"
     inkscape:connector-curvature="0" /><path
     d="m 272.85711,546.1143 -6.9,-0.2 c -0.8,4.7 -1.5,9.5 -2.3,14.3 l 7.3,0.2 1.9,-14.3 z"
     id="path3415"
     inkscape:connector-curvature="0" /><path
     d="m 269.95711,568.5143 -7.6,-0.2 c -0.9,5.5 -1.8,10.9 -2.6,16.1 l 8.1,0.2 2.1,-16.1 z"
     id="path3413"
     inkscape:connector-curvature="0" /><path
     d="m 285.55711,546.5143 -6.7,-0.2 -1.4,14.3 7.1,0.2 1,-14.3 z"
     id="path3411"
     inkscape:connector-curvature="0" /><path
     d="m 254.05711,560.0143 4.7,0.1 c 0.8,-4.8 1.6,-9.6 2.5,-14.3 l -4.6,-0.1 c -0.9,4.7 -1.8,9.5 -2.6,14.3 z"
     id="path3409"
     inkscape:connector-curvature="0" /><path
     d="m 249.75711,584.1143 4.8,0.1 c 0.9,-5.2 1.8,-10.6 2.8,-16.1 l -4.7,-0.1 c -1,5.5 -2,11 -2.9,16.1 z"
     id="path3407"
     inkscape:connector-curvature="0" /><path
     d="m 463.45711,570.0143 -8.1,0 -0.9,13 8.5,0 0.5,-13 z"
     id="path3405"
     inkscape:connector-curvature="0" /><path
     d="m 258.15711,536.7143 4.6,0.1 c 0.8,-4.6 1.5,-9.1 2.3,-13.4 l -4.5,-0.1 c -0.8,4.3 -1.6,8.8 -2.4,13.4 z"
     id="path3403"
     inkscape:connector-curvature="0" /><path
     d="m 270.75711,516.0143 6,0.2 1.7,-13 -5.6,-0.2 c -0.7,4 -1.4,8.4 -2.1,13 z"
     id="path3401"
     inkscape:connector-curvature="0" /><path
     d="m 261.75711,515.7143 4.5,0.1 c 0.8,-4.6 1.5,-8.9 2.2,-13 l -4.4,-0.1 c -0.6,3.8 -1.4,8.2 -2.3,13 z"
     id="path3399"
     inkscape:connector-curvature="0" /><path
     d="m 430.45711,562.8143 4.8,0 c 0.8,-5.3 1.6,-10.7 2.3,-16.2 l -4.7,0 c -0.8,5.6 -1.6,11 -2.4,16.2 z"
     id="path3397"
     inkscape:connector-curvature="0" /><path
     d="m 289.75711,381.6143 c 1.1,-6.4 2,-11.4 2.5,-14.2 -0.5,0 -0.9,-0.1 -1.3,-0.1 -3.8,-0.2 -3.5,9.7 -3.5,9.7 0,0 -0.3,1.6 -0.8,4.5 l 3.1,0.1 z"
     id="path3395"
     inkscape:connector-curvature="0" /><path
     d="m 338.35711,240.0143 9.9,15.1 9.9,0 -29.6,-46.7 0,46.7 9.9,-1.3 0,-13.8 z"
     id="path3393"
     inkscape:connector-curvature="0" /><path
     d="m 326.35711,351.5143 c 0,2.9 -30.7,0 -35.5,0 -4.8,0 -10.5,4.8 -1.9,5.8 l 29.7,0 -2.9,84.4 c 0,0 7.7,-3.8 3.8,9.6 -3.8,13.4 -12.5,11.5 -36.4,12.5 -24,1 -32.6,-7.7 -32.6,-7.7 0,0 4.8,24 8.6,24 3.8,0 9.6,-9.6 23,-9.6 13.4,0 49.9,0 49.9,6.7 0,6.7 -8.6,11.5 -14.4,12.5 -5.8,1 -14.4,2.9 -14.4,2.9 l -2.7,150.4 c 0,0 17.3,5.8 18.2,-1 1,-6.7 1.8,-27.8 2.5,-53.7 1,-35.5 5.1,-34.5 7.1,-38.4 1.9,-3.8 94.9,-58.5 98.8,-60.4 3.8,-1.9 10.5,-16.3 -1.9,-10.5 -12.5,5.8 -107.4,57.5 -107.4,57.5 0,0 -1,-13.4 3.8,-14.4 4.8,-1 29.7,-14.4 28.8,-17.3 -1,-2.9 -19.2,-47 -18.2,-74.8 1,-27.8 1,-48.9 1,-48.9 0,0 9.6,-2.9 5.8,-10.5 -3.8,-7.7 -7.7,-13.4 -4.8,-17.3 2.9,-3.8 8.6,-3.8 9.6,-9.6 1,-5.8 3.8,-21.1 0,-21.1 -3.8,0 -4.8,8.6 -11.5,9.6 -6.7,1 -14.4,-4.8 -14.4,-4.8 l -1.9,17.3 c -0.2,0 10.3,3.9 10.3,6.8 z"
     id="path3391"
     inkscape:connector-curvature="0" /><path
     d="m 338.05711,315.5143 c -0.7,-11.2 0,-35.3 0,-35.3 l 33.2,0 -2.6,-14 -40.1,0 c 0,0 0,34.2 0,50 -0.1,15.8 10.1,10.5 9.5,-0.7 z"
     id="path3389"
     inkscape:connector-curvature="0" /><path
     d="m 469.75711,583.0143 5.2,0 c 0.1,-4.1 0.3,-8.5 0.4,-13 l -5.3,0 -0.3,13 z"
     id="path3387"
     inkscape:connector-curvature="0" /><path
     d="m 469.25711,605.5143 4.9,0 c 0.1,-4.2 0.3,-9.2 0.5,-14.8 l -5.1,0 -0.3,14.8 z"
     id="path3385"
     inkscape:connector-curvature="0" /><path
     d="m 468.85711,624.3143 c 8.4,-0.7 4.8,-5.8 4.8,-5.8 0,0 0.1,-2.5 0.2,-6.7 l -4.8,0 -0.2,12.5 z"
     id="path3383"
     inkscape:connector-curvature="0" /><path
     d="m 363.75711,391.7143 c 0,0 8.2,10.6 18.4,16.4 10.2,5.7 6.1,-4.9 3.7,-7.4 -2.5,-2.5 -8.8,-11.8 -16.8,-14.7 -14.3,-5.3 -5.3,5.7 -5.3,5.7 z"
     id="path3381"
     inkscape:connector-curvature="0" /><path
     d="m 299.55711,382.2143 3.6,0.2 1.3,-13.8 c -1,-0.1 -2.1,-0.2 -3.2,-0.4 l -1.7,14 z"
     id="path3379"
     inkscape:connector-curvature="0" /><path
     d="m 297.25711,401.9143 4,0.3 1.1,-11.9 -3.8,-0.2 -1.3,11.8 z"
     id="path3377"
     inkscape:connector-curvature="0" /><path
     d="m 304.95711,402.4143 4.3,0.3 c 0.4,-4.3 0.7,-8.3 1,-11.9 l -4.3,-0.3 -1,11.9 z"
     id="path3375"
     inkscape:connector-curvature="0" /><path
     d="m 301.65711,443.0143 4,0.3 c 0.4,-4.4 0.8,-8.8 1.1,-13.1 l -4.1,-0.3 -1,13.1 z"
     id="path3373"
     inkscape:connector-curvature="0" /><path
     d="m 311.35711,374.3143 c 0.2,-7.4 -2.2,-5.1 -2.2,-5.1 0,0 -0.6,-0.1 -1.6,-0.2 l -1.1,13.6 4.3,0.3 c 0.4,-4.5 0.6,-7.6 0.6,-8.6 z"
     id="path3371"
     inkscape:connector-curvature="0" /><path
     d="m 464.35711,546.7143 -7.4,0 -1.1,16.2 7.8,0 0.7,-16.2 z"
     id="path3369"
     inkscape:connector-curvature="0" /><path
     d="m 303.35711,421.6143 4.1,0.3 c 0.4,-4.2 0.7,-8.4 1.1,-12.3 l -4.2,-0.3 -1,12.3 z"
     id="path3367"
     inkscape:connector-curvature="0" /><path
     d="m 437.55711,515.2143 4.6,0 c 0.7,-4.6 1.3,-9.1 1.9,-13.5 l -4.5,0 c -0.7,4.4 -1.4,8.9 -2,13.5 z"
     id="path3365"
     inkscape:connector-curvature="0" /><path
     d="m 434.05711,538.6143 4.7,0 c 0.7,-4.8 1.4,-9.6 2.1,-14.4 l -4.6,0 c -0.8,4.8 -1.5,9.6 -2.2,14.4 z"
     id="path3363"
     inkscape:connector-curvature="0" /><path
     d="m 440.65711,494.1143 4.5,0 c 0.7,-4.6 1.3,-9 1.9,-13 l -4.5,0 c -0.6,3.8 -1.2,8.2 -1.9,13 z"
     id="path3361"
     inkscape:connector-curvature="0" /><path
     d="m 465.15711,524.2143 -6.6,0 -1,14.4 7.1,0 0.5,-14.4 z"
     id="path3359"
     inkscape:connector-curvature="0" /><path
     d="m 292.75711,408.6143 -4.4,-0.3 c -0.7,4 -1.3,8.1 -2,12.2 l 4.6,0.3 1.8,-12.2 z"
     id="path3357"
     inkscape:connector-curvature="0" /><path
     d="m 452.45711,472.6143 5.4,0 1.6,-15.4 c -1.7,-0.1 -3.4,-0.1 -5,-0.2 -0.4,3.2 -1.1,8.6 -2,15.6 z"
     id="path3355"
     inkscape:connector-curvature="0" /><path
     d="m 449.55711,494.1143 6,0 1.3,-13 -5.6,0 c -0.5,4.1 -1.1,8.4 -1.7,13 z"
     id="path3353"
     inkscape:connector-curvature="0" /><path
     d="m 478.15711,463.2143 c -0.4,-8.1 -3.6,-5.4 -3.6,-5.4 0,0 -0.9,0 -2.3,-0.1 l -0.3,14.9 6.2,0 c 0.1,-5 0.1,-8.4 0,-9.4 z"
     id="path3351"
     inkscape:connector-curvature="0" /><path
     d="m 471.15711,515.2143 5.9,0 c 0.1,-4.7 0.3,-9.2 0.4,-13.5 l -6,0 -0.3,13.5 z"
     id="path3349"
     inkscape:connector-curvature="0" /><path
     d="m 470.65711,538.6143 5.7,0 c 0.1,-4.8 0.3,-9.6 0.4,-14.4 l -5.8,0 -0.3,14.4 z"
     id="path3347"
     inkscape:connector-curvature="0" /><path
     d="m 470.15711,562.8143 5.4,0 c 0.2,-5.3 0.3,-10.7 0.5,-16.2 l -5.6,0 -0.3,16.2 z"
     id="path3345"
     inkscape:connector-curvature="0" /><path
     d="m 471.55711,494.1143 6.1,0 c 0.1,-4.7 0.2,-9.1 0.3,-13 l -6.1,0 -0.3,13 z"
     id="path3343"
     inkscape:connector-curvature="0" /><path
     d="m 427.35711,583.0143 4.9,0 c 0.6,-4.1 1.3,-8.5 1.9,-13 l -4.8,0 c -0.7,4.7 -1.4,9.1 -2,13 z"
     id="path3341"
     inkscape:connector-curvature="0" /><path
     d="m 424.35711,602.8143 c -0.2,0.7 -0.3,1.7 -0.6,2.7 l 5.1,0 c 0.6,-4.2 1.4,-9.2 2.2,-14.8 l -4.9,0 c -1,6.9 -1.7,11.4 -1.8,12.1 z"
     id="path3"
     inkscape:connector-curvature="0" /><path
     d="m 219.75711,692.5143 c 0,-4.1 3.4,-7.5 7.5,-7.5 l 10.1,0 c 4.1,0 7.5,3.4 7.5,7.5 l 0,10.1 c 0,4.1 -3.4,7.5 -7.5,7.5 l -10.1,0 c -4.1,0 -7.5,-3.4 -7.5,-7.5 l 0,-10.1 z"
     id="path3525"
     style="fill:#ffffff"
     inkscape:connector-curvature="0" /><text
     xml:space="preserve"
     style="font-style:normal;font-weight:normal;font-size:40px;line-height:125%;font-family:sans-serif;letter-spacing:0px;word-spacing:0px;fill:#000000;fill-opacity:1;stroke:none;stroke-width:1px;stroke-linecap:butt;stroke-linejoin:miter;stroke-opacity:1"
     x="362.73889"
     y="1004.3483"
     id="text3912"
     sodipodi:linespacing="125%"><tspan
       sodipodi:role="line"
       id="tspan3914"
       x="362.73889"
       y="1004.3483"
       style="font-style:normal;font-variant:normal;font-weight:bold;font-stretch:normal;font-size:180px;font-family:'.Al Bayan PUA';-inkscape-font-specification:'.Al Bayan PUA Bold'">VC</tspan></text>
<circle
     style="fill:#000000"
     id="path3916"
     cx="544.42865"
     cy="70.450974"
     r="36.236187" /><flowRoot
     xml:space="preserve"
     id="flowRoot5721"
     style="font-style:normal;font-weight:normal;font-size:40px;line-height:125%;font-family:sans-serif;letter-spacing:0px;word-spacing:0px;fill:#000000;fill-opacity:1;stroke:none;stroke-width:1px;stroke-linecap:butt;stroke-linejoin:miter;stroke-opacity:1"
     transform="translate(0,8)"><flowRegion
       id="flowRegion5723"><rect
         id="rect5725"
         width="89.823936"
         height="636.82867"
         x="-10.364301"
         y="399.60135" /></flowRegion><flowPara
       id="flowPara5727" /></flowRoot></svg>